<?xml version="1.0" encoding="UTF-8"?>
<svg id="Layer_1" xmlns="http://www.w3.org/2000/svg" baseProfile="tiny" version="1.2" viewBox="0 0 1024 1024">
  <!-- Generator: Adobe Illustrator 29.7.1, SVG Export Plug-In . SVG Version: 2.1.1 Build 8)  -->
  <rect width="1024" height="1024" fill="#f26722"/>
  <g id="white">
    <path d="M70.6,499.5c-3.5,30.7-30.8,53.5-36,84.9-3.2,19.1.7,31.4,1.8,49.5s-6.6,44.5,7.8,69c5.5,9.4,13.5,14.5,20.1,22.4s9.7,16.2,15.2,23.2c10.4,13.4,23.3,14.5,18,36.8-5.8,24.4-19.2,36.1-18.3,66.3,1.1,36.1,37.5,92.7,78.7,82.4,9.9-2.5,25.4-13.1,24.9-24.4-11.3,4.4-21.6,4.3-32.5-1.2-19.8-10-25.8-40.4-21.3-60.4s2.6-3.4,2.9-5.5c.5-3.6-2.6-6.9-2.1-11.3s8.9-10.2,11.9-14.1c7.7,8.3,11,19.3,16.9,28.8,16.4,26.2,36.5,43.2,55.8,65.7,6.3,7.4,11.5,17.3,18.6,23.9,13,12.2,35.3,17.8,51.1,24.7,26.8,11.7,26.6,19,60,18.8,18.9,0,18.3,3.3,33.8,7.8,24.2,7.1,72.2,6,96.4-1.3,4.2-1.3,9.2-4.8,13.3-5.4,6.2-.9,14.1.5,20.7,0,20.9-1.7,33.1-12.4,50.4-21.3,11.2-5.8,23.5-9.8,34.6-16.3,30.9-17.9,54.5-43.7,75.9-71.6,5.8-7.5,14.6-25.7,25.9-24.5,7.3.8,1.8,10.9-.2,14.9-14.3,29.2-36.7,33.8-39.6,71.5-1.9,25.1,13.1,33.9,24.9,53.5l-65.4,38.4c-139.8,0-279.7,0-419.6,0-64.9-27.3-120.2-72.8-158.3-132C22.7,871,11,847.4,0,823.6,0,744.7,0,665.7,0,586.8l16.6-22.8c0,1.6.5,3.1,1,4.6h2.1c0,0,11.4-24.4,11.4-24.4l39.5-44.7ZM32.2,708.3v15.1c0,3.8,9.8,19.3,13.5,21.8s11.2,4.8,15.3,2.9c4.7-2.1-4.6-7.2-6.4-9.7-3.2-4.3-5.8-11.8-9.1-16.9-1.3-2-10.8-15.8-13.3-13.2ZM54.2,790.2c3.2,5.1,11.9-4.8-.2-5,.2,1.4-.5,4,.2,5ZM62.3,812.1c.3-4.2.3-10.6-5.2-11.4-2.1,5.3-1.5,11.3,5.2,11.4ZM163,882.8c1.1-1-3.3-7.9-6.2-6.2-1.8,3.6,4.1,8.1,6.2,6.2ZM269,974.2c-.2-.2-4.5-.8-6.2-1.6-10.7-4.7-22.3-11.1-30.1-19.7-7.8-8.6-13.9-19.5-23.9-26.5,1.4,16.1,2.6,31.8,16.1,42.6,9.8,7.8,27,11.2,39.2,9.1s6.7-2.2,4.9-3.9ZM633.5,944c-2.3-2.4-20.7,17.1-12.5,21.3,3.5,1.8,5.6-3.1,7.1-5.4,2.9-4.7,4.8-10.3,5.4-15.9ZM596.7,973.1c-2.1.5-5.6,6.5-2.1,7.3s6.8-8.3,2.1-7.3Z" fill="#fff"/>
    <path d="M236.8,202.5c-12.2,23.4-11.4,27.7-15.9,53.2s-3.3,8.9-3.8,12.8c-1,7.8,4,31.3,6.1,39.9-5.8.3-11.9,2.3-17.4,3.9-65.8,19.2-125.8,55.1-175.3,102-9.2,8.7-17.5,19.2-26.4,27.6s-2.1,2.6-4.2,2.6C0,398.1,0,351.7,0,305.3c8.2-3.9,15.5-10.6,23.1-15.8,63.1-43.3,137.9-74.7,213.6-87Z" fill="#fff"/>
    <path d="M785.1,473.6c-6.1-.5-16.9-2.2-22.3-2.2-14.5.1-23.8,7.8-39.2.8-11.1-5.1-13.8-14.5-12.2-26.1,1.6-11.1,19.3-25.1,30.3-22.2s13.5,6.9,14.1,8.8c4.6,15-16.8,10.1-13.9,3.5s4.5-2.4,1.6-4.7c-9.9-7.8-29.3,17.1-14.5,26.9s31.3-1.1,38.4-10.9c7.3,7,13,17,17.7,26Z" fill="#fff"/>
    <path d="M719.7,955.5c-3.1-22.6,22.6-34.4,39.5-41.5-3.9,7.2-10.5,14.7-16.1,20.8s-14.8,15.9-23.4,20.8Z" fill="#fff"/>
    <path d="M271.1,387.4c.5,2.5,1.5,2.7.8,6.5-2.7,14.3-18,11.2-21.1,26.7s.5,27.1,15.1,29.7.4-14.2,3.7-21.4,8-8.1,9.7-9c4.2-2.3,10.5-3.2,15.2-2.4s20.8,12.3,18.8,18.6c-5.4-5.7-10.2-11.1-18.7-11.5-12.2-.6-4.7,5.6-4.7,10.9s-1.6,4.8-1.1,5.7,1.5-.7,2.2-.5c8.1,2.7,2,15.2-3.3,18.6-11.6,7.5-33.5-1.5-46.3-3.5-9.4-1.5-19.3-1.4-28.8-2.4-4.8-5.2-8.6-11.4-14.2-15.9s-10.2-5.2-13.6-8.2-3.8-7.2-5.1-8.9c28.9-14.5,59.2-28.5,91.4-33.2ZM224.2,412.4c-1.7-2.7-10-2.4-10.3,2.5.6,2.9,13,1.9,10.3-2.5Z" fill="#fff"/>
    <path d="M135,448.6c.8.5,5.2,1.1,5.2,2.6s-3.1,4.1-3.2,8.3,2.7,7.2,3.1,9.5-12,6.5-14.8,7.7-6.9,5-11,5c-.3-2.7-3.6-10.7-5.2-12.5l26-20.8Z" fill="#fff"/>
    <path d="M573.3,689.6c-4.1,14.7-6.7,29.8-13.5,43.6-2.8,5.8-6.2,8.6-6.2,16.6-38.3,71.6-127.6,108.7-203.9,74.6-39.4-17.6-72.9-53.6-59.3-99.5s22.1-55.6,49.6-46.5c14.8,4.9,7.1,13.7,6.1,23.2-1.2,11.8,6,23.1,15.5,29.5,3.8,13.1,22.3,21.5,34.9,22.7,31.9,3.2,48.8-15.1,70-34.7,25.7-23.7,21.5-56.3-1.1-80.5,6.4,1.9,12.2,6.5,19.2,6.3s12.6-7.7,9.8-15.7c-2.8,0-3.8,2.8-6.8,3.1-16.9,1.7-24.7-29-7.2-39.5s8.7,6.1,12.5,14.6,2.6,4.5,4.7.6,5.2-12.2,12.7-10.7c12.6,2.4,8,22.6,9.2,31.4,1.7,13.1,13,12.8,18,22.5s1.8,13.8,8.9,21.3,14.9,4.3,22.2,9c4.9,3.1,3.2,5.1,4.8,8.1Z" fill="#fff"/>
    <path d="M460.1,443.5c2.7,2.7,6.6,3.4,9.7,5.4,10,6.5,17.1,23.6,22.5,34.1-3-2.2-6.5-3.7-9.3-6.2-1.1,1.4,4.9,10.5,5.2,13.1s-1,4.8-.9,7.1c.1,5,3.7,12.2,2,18.3-6.9-4.7-8.4-15.7-17.6-17.6-.4,1.6,1.4.6,2,1.8,1.5,2.8,6.5,17.6,7.1,20.8.9,5.4-.1,9.8-1.8,14.8-3-1.3-1.8-5.5-2.5-8.4-2.1-8.7-4.8-16.4-15.1-17.6,0,1.6,1.9,1.2,3,2.7,7.1,10.2,8.2,34.4-.4,44-.6-4,1.2-8,1.5-12,.5-5.9-1.1-12.2,2.1-17.7-2.4-1-5.2,4.6-5.7,4.7-1,0-5.3-7.5-6.8-8.7s-10.8-5-9.3-1.1c4.7,4.3,12.3,13.1,11.4,19.7l-3.1,8.9c.4-3.3-9.4-18-12.5-15.6,8.5,10.6,5.8,25.7,1,37.4l-2.6-19.7c-.3-2.6-9.9-18.9-11.9-16.6.6,7.1,3.1,13.3,2.1,20.8l2.1-2.1c1,6.5-3.5,11.6-6.7,16.6-3.1-10.1,0-21.1-9.3-29.1-1.7,1.5,1.6,4.6,1.6,5.7v17.7c0,.9-3.2,12.5-5.2,9.9-.3-8.1-1.5-17.1-7.8-22.8l2.6,19.7-2.1-3.1c1.5,5.7.8,12-6.2,12.4,1.5-4-.2-11.3-1.5-15.6-3.3-10.9-10.3-18.9-22.3-19.7,12.2,8.8,11.7,23.8,12.5,37.4-4.3-2.2-13.8-1.2-16.9-3.1s-7.9-11.9-10.9-14.6c-6.2-5.6-17.2-7.7-24.7-11.4,5.2,9,19.1,11.8,20.3,22.8h-31.7c-2.9,0-8.9-6.3-11.9-7.8s-7.3-2.1-11-3.6c1.4,3.5,13.5,10.4,14,13,.9,4-7.1,2.1-9.3.9s-3.1-4-4.6-5.3c-4.5-3.9-14.6-6.3-20.4-5,3.2,2.6,7.8,3,10.9,5.7s6.6,7.3,6.7,7.8c.3,1.2-.7,2.1-1.7,2.4-8.5,2.7-22.8-15.9-33.6-8.1l10.1,2.9c4.2,2.1,13.5,5.8,9.7,11.9-4.7,1.2-11.8,11.7-15.2,12.2s-9.7-4.4-14.6-5.1-8.9-.2-12.9,1l10.8,4.3c1.7,1.5,8.4,4.2,8.9,5.7.9,2.9-6.5,7.9-9,8.5-7.6,1.7-18.9-4.7-25.8,2.3h6.2c4,1.3,14.8.7,10.8,6.6s-17.5,4.4-23.6,6.5-8.1,4-5.9,5.6c3.5-1.8,14.7-4.3,16,.7,1.4,5.5-8.7,6-11.3,7-5.9,2.3-17.8,11-21,16.4s-1.8,3,.2,2.8c-.3-1.5.4-1.6,1.5-2.2,6.6-3.9,13.8-6.8,21.4-8.1-4.3,20.4-33,21.4-37.3,43.2s-.9,6.5,1,6.7c4.3-10.4,15-23.7,27-24.9,5,5.2-24.9,25.8-19.2,35.3l12.5-13.5c2.7,13.1-13.8,19.7-14.7,32.9,0,.9.2,6.5,1.7,6.6-.3-4.4,2.4-8,4.8-11.3,5.9-8.3,13-13,7.9,1.7s-5.4,8.5-6.9,12.8-3.5,12.8.5,15.6c1.1-5.6,3.2-12.9,9.4-14.5,1.7,8.3-3.6,14.7-5.5,22s-2.9,17.6.3,25.8l1.5-14.6c.4-.7,2.8-9.5,4.7-7.2s-3.1,8.9-3.1,9.9v16.6c0,.2,1,3,2.1,2.6-1.3-1.9,1.6-21.6,4.2-19.7,1,6.5,6.6,13.8,7.9,19.7,1.1,5,.7,10,2.2,15.4,4.3,15.2,16.9,21.8,26.2,33,10.8,13,14.9,28.4,30.5,37,10,5.5,22.6,9.7,32.6,15.2,6,3.3,13.3,10.1,18.8,12.4s10.7,1.6,15.9,2.8c6.5,1.6,12.8,5.6,19.4,6.5,6,.9,12.2,0,18.2,1.6,8.1,2.3,15.2,9.7,25.3,11.1,17.3,2.3,27.9-10.4,45.1-8.2.7,2.4-.6,1.8-1.3,2.4-1.9,1.6-6.1,5.9-8,6.5-4.2,1.3-13.3.8-19,1.8-5.7,1-13.9,4.8-19,5-11.4.4-17.2-14.8-28.6-13.6l6.2,4.7c-7.6,3.1-12.9-4.7-19.3-6.7-3.9-1.2-18.8-4.2-22.8-4.2s-1.8-.3-1.6,1.1l9.3,5.2c-5.9-2.1-28.9-6.3-31.9-9.7s-1.3-4.2-3.2-6c-3.7-3.5-12.3-4.4-16.9-7.2.3,0,4.2-.9,5.7-1.1s3.4-.6,1.6-2c-7.7-2-16.4-1.8-23.9-3.1-9.4-1.6-12.7-4.3-17.7-12.5-1.3-3.6-3.1-5.6-5.2-8.3-3.2-4.2-6.6-7.7-10.4-11.4-1.1-3.4-3.6-5.8-4.2-9.3-1.7-.3-1.2,4.5-1,5.2-3.1-3.4-9-4.5-12.1-6.6s-12.1-12.7-12.8-13.6c-2.1-2.8-2.3-6.6-5.2-8.8-.4-1.1-2.9-9.5-4.1-8.3v2.1c-9.9-6.5-21-10.7-26.2-22.1-3.6-7.9-4.1-23.5-5-32.9,3.2.6,1.9-1.6,2.1-3.6.5-6.5,2.1-12.3,1.1-18.2-1.8-10.4-8.1-17.8-8.3-28,.6-3.7.4-8.5,1-12.5,1.3-8,1.8-14.2,4.1-22.3,10.3-35.5,30.6-66.7,55.1-94,6.1-2.1,11.5-6.3,17.6-8.3.2-1.8-3-1-4.1-1,0-2.1,3.8-4.6,5.3-5.6,18.8-13.2,54.3-32.2,76.8-35.9,4.3-.7,7.3-1.4,11.9-1s13.2,4.4,6.8-1.1c4-.2,15.3-3.4,19.7-4.7,2.8-.8,6.3-1.5,8.3-3.6,3.1.6,8.3,2.5,11.1,4s8.9,7.1,9.7,6.4c-2.9-5.3-7.5-11.1-12.5-14.5,2.2-.7,5.9-2.4,7.3-4.2l12.5,6.2c-.9-2.3-3.8-7.7-6.2-8.3l15.6-9.3c5.2,3,12.8,5,18.7,6.2-2.7-4.1-7.1-10.1-12.5-10.4l9.3-8.3c7.4.9,12.9,1.9,19.7,5.2-1.8-6.3-9.6-8.4-14.5-11.4,1.1-.3,3.3-3.1,4.2-4.2h10.4c-.9-2.3-4-3.3-6.2-3.1l3.1-5.2c5.8.3,12.7,2.9,18.7,3.1-3.4-5.1-9.1-6.3-14.6-7.8s-1.8-1.5-2-1.6l1-5.2c7.7.2,13.3.2,20.8,3.1-1.9-6.1-11.9-9.2-17.7-8.3l2.1-10.4c5.5-1.6,15.2-2,20.8-1-.2-1.6-3.8-2.2-5.2-2.6-4.2-1.1-8.3-1.4-12.5-2.6l2.1-6.2c1.2-.3,2.9.2,4.2,0ZM380.1,568.1c.4-.4-6.7-9.9-8.3-8.3l2.6,4.2c1.4,0,4.4,5.3,5.7,4.1ZM337.5,568.1c-1.7-3.5-4.5-4.7-8.3-4.1l8.3,4.1ZM266.9,594c-2-3.9-6.8-3.1-10.4-3.1-.5,3,.6,1.7,2.4,2.2,2.6.7,5.3,1.1,8,.9ZM193.2,809l-2.8-7-2.3-20c-3.6,8.7-7.5,24.4,5.2,27ZM207.7,822.5c.3-3.3-1.2-8.1-5.2-8.3-.8.8,3.2,8.1,5.2,8.3ZM218.1,836c.4-1.9-4.4-10-6.2-8.3,1.5,3.1,3.4,6.3,6.2,8.3ZM233.3,848.8c-6.4-6.8-8.5.8.9,3.8,1.4-.7-.2-3.1-.9-3.8ZM270,890c-2.1,1.8,7.6,6.7,9.3,5.7-1.1-1.5-7.7-7.1-9.3-5.7Z" fill="#fff"/>
    <path d="M639.7,797.6c-.6,9.4.8,11.8-3.3,21.1-5.8,13.3-15,28.3-24.3,39s-5.2,3.3-6.7,5.8l3.1,1.6c0,1.2-1.6,1.5-2.1,2.1-4.2.2-5.9,3.7-8.3,6.2s-4.2,3.6-4.6,4.2c-1.9,2.9-1.4,9-5.2,12.4s-15.1,8-16.1,8.3c-7.3,1.7-13.1,1.5-20.1,6.4-8.8,6.3-4.4,13-19.6,17.8-11.7,3.6-22.2-.5-34-1.3-.3-1.9,2.1-.7,3.1-1,8.9,1,16.9-6.4,25.2-2.1s2.3,4.3,5.9,3.1c.6-1.3-1.1-4.8-.9-5.1.9-1.3,5.6-.2.9-5.3,9.4-5,18.6-16.6,29.8-22.6,11.4-6.1,24.2-7.1,33.5-16.3-3.5-.4-7.2,1.2-10.6,1.8s-2,2-1.8-.8c3-2.4,6.4-3.8,9.4-6.2,10.5-8.9,25.9-25,30.9-37.6s1.9-8.2,3.5-12.1c2.6-6.3,8.5-13.5,12.3-19.3ZM575.3,889c-3.4.5-8.6.8-10.4,4.1,2.9.3,5.7-.4,8.3-1.6s2.6.2,2.1-2.5Z" fill="#fff"/>
    <path d="M603.4,391.5c10.9-3.5,17.4-15.3,25.4-22.9,16.1-15.1,35.1-21.1,26.8,10.2-6.8,25.7-34.2,28.1-52.2,12.7Z" fill="#fff"/>
    <path d="M417.5,392.5c-9.3,6.2-17.8,8.8-28.9,5.5s-21.6-14.7-22.1-28.9.7-12,9.8-10.8,14.4,8.1,21.3,15,13.4,12.6,19.8,19.2Z" fill="#fff"/>
    <path d="M75.1,580.2c-8.3-7.3-.5-27.8,4.7-35.7,1.3-2,11.1-11.5,12.7-12.2,4.9-2.2,12.5,1,13.5,6.2s.1,16.4-2.5,22.3c-3.8,8.4-17.3,29.1-28.3,19.4ZM90.9,547.4c-4.6-.3-11.7,16.8-11,21.2s4.5,3.6,6.8,1.6,5-8.7,5.5-10.1c.9-2.6,2.5-12.4-1.3-12.7Z" fill="#fff"/>
    <path d="M154.5,490.4c2.9,2.9,1,9.5-1,12.6s-14.4,15.4-17.1,17.1c-12.1,7.6-39.1,3.9-26.9-10.3s2.1-2.5,4.9-7.6,17.9-13.3,23.3-14.1,14.3-.3,16.8,2.2ZM137.1,500.6c-8.4-.5-22.9,6.7-18.7,16.6l13.5-9.8,5.2-6.8ZM138.1,513c-1.3-1.2-7.8,4.4-8.3,6.2,2.7,1.9,9.7-4.9,8.3-6.2Z" fill="#fff"/>
    <path d="M73.2,600.7c1.9,0,5.8,2.5,7.3,3.8,8.7,7.6,11.2,27.9,7,38.1s-6.2,9.4-10.1,9.8c-21.1,2-17.6-51.1-4.2-51.6ZM76.8,613.8c-10,.8-4.9,37.8,3,26.4,4-5.7-.5-20.2-3-26.4Z" fill="#fff"/>
    <path d="M707.2,803.8l4.4-46c1.9-7.7,6.8-9.4,10.7-1.8,1.5,2.9,6.6,19.3,7.3,22.8,2.5,12.1-9.7,26.8-22.4,25Z" fill="#fff"/>
    <path d="M360.1,883c9.8-2,34.1,3,33.6,15.8-.7,15.7-42.8,14.1-46.3-2.6s7.9-12.3,12.8-13.3ZM382,896.4c-2.4-4.1-24.1-8.3-23.7,1.9,4.9,1.2,19.3,7.3,22.9,2.7s1.5-3.3.8-4.6Z" fill="#fff"/>
    <path d="M589.6,821.7c15-3.2,11.3,14.6,6.3,22.9-12.3,20.9-42.6,20.9-27.6-4.8,3.3-5.6,15.1-16.8,21.3-18.1ZM590.9,832.9c-9-.2-15.8,9.3-16.6,17.6,8.2-.5,17.1-8.9,16.6-17.6Z" fill="#fff"/>
    <path d="M485.8,881c29.5-3.5,15.9,25.8-3.7,28.5-8.1,1.1-19.9,1.4-21.9-8.8-2-10.5,17-18.7,25.5-19.7ZM469.4,901.4c4.8,1.7,26-2,23.8-9.7s-23,2.8-23.8,9.7Z" fill="#fff"/>
    <path d="M410.6,913.6c-10.8-10.5-.3-22.9,12.7-24.5,13.1-1.5,27.2-.5,22.8,16.5s-27.8,15.4-35.5,7.9ZM437,905.4c9.6-9.3-19.6-11.8-21.4-2.2-1.4,7.2,18.7,4.8,21.4,2.2Z" fill="#fff"/>
    <path d="M257.3,822.7c6.1-1.8,19,4.1,23.1,8.6,6.1,6.7,11.5,24.8-.7,27.3-10.4,2.1-20.9-6.5-24.2-15.8s-4.8-18.1,1.8-20.1ZM264.5,832c-7.9,2.3,6.9,20.9,13.9,16.1,5.1-3.5-9.5-17.4-13.9-16.1Z" fill="#fff"/>
    <path d="M300.5,883.4c-3.7-3.5-8.8-16.3-3.8-19.5,10.6-6.6,32.1,2.6,38.8,12,6.1,8.6-5.5,14.7-13,15.1-6.2.3-17.4-3.3-21.9-7.6ZM307.1,870.5c-13.9,4.2,21.2,22.3,16.5,7s-11.9-8.4-16.5-7Z" fill="#fff"/>
    <path d="M541.8,857c22.1-3.5,5.5,27.9-7.5,32s-20.7.8-19.3-12c1-9.3,18.2-18.6,26.8-20ZM538.7,866.4c-10.4,1.4-24.2,23.1-5.8,14s4.9-2.9,6.6-4.9c3.6-4.2,7.4-10.3-.8-9.2Z" fill="#fff"/>
    <path d="M204.3,481.6c-.5.5-11.7,6.4-13.2,7-6.4,2.6-24.2,6.1-24.9-4.2-.9-13.6,24.9-21.7,35.6-17.9s5.2,12.3,2.6,15.1ZM190,474.6c-18.6.2-16.9,15.3,0,3.6l-2.1-2.1,2.1-1.5Z" fill="#fff"/>
    <path d="M228.7,774c7.9-7.4,16.8,7.8,19.6,13.6s9.1,18.8-.4,22.8c-17.1,7-27.7-28.4-19.2-36.3ZM246.1,800.7c1.9-1.9-3.3-18.7-8.8-17.7s-.8,15.2,3.6,17.1,4.7,1,5.2.5Z" fill="#fff"/>
    <path d="M616.9,771.6c-.3,1.9.2,4.3,0,6.2,2.8,0,4.5-3.3,7.3-1,2.8,9.6,3.3,13.7-1.2,23.2-3.6,7.7-14.6,19.1-19.3,6.1-4-11.1,1.7-29.6,13.2-34.5ZM620,782c-6.4-1.3-13.5,15.8-7.7,17.6s7.4-14,7.7-17.6Z" fill="#fff"/>
    <path d="M83.1,664.7l11.4,33.2c-2.3,5.9-5.4,7.2-11.9,6.2-13.4-2.2-21.6-47.3.5-39.4ZM80.8,676.3c-8.3-4.6-2.3,14.8.1,17.8s3.7,1.5,5.3,1.7c1.8-2-2.9-18.1-5.4-19.5Z" fill="#fff"/>
    <path d="M228.4,712.6c1.3.9,8.2,25,8.5,28.4.7,8,.3,20.6-11.4,15.6s-12.8-37.7-3.4-43.1,5.4-1.6,6.4-.9ZM226.6,747.5c1.4,1.5,2.8,1.4,3.7-.5s2.4-13.9,2.3-15.3-5.3-7.1-6.7-6.8c-4.8,1.1-2.2,19.4.7,22.6Z" fill="#fff"/>
    <path d="M241.7,656.7c4.5,3.9,6.1,19.4,4.5,25.2-2.4,8.5-8.2,14.1-17.5,10.2-6.8-2.9-2.6-35.4,9.8-36.4,1.2,0,2.2.3,3.1,1ZM238.8,666.8c-2.2-1.8-3.5,4.9-3.8,6-1.4,5.6-1.5,11.2-2.4,16.8,11.5,3.5,10-19.7,6.2-22.8Z" fill="#fff"/>
    <path d="M314.5,594.2c6.8-.2,4,6.4,1.7,10.1s-10.5,13.1-12.9,15.2-13,4-15.7,2.1-1.2-5.5-.9-7.3c1.5-9.7,18.7-19.8,27.8-20.1ZM308.4,607.6c-6-.9-10.2,3.3-12.5,8.3,1.3,1,13.2-4.5,12.5-8.3Z" fill="#fff"/>
    <path d="M426.8,946.1c-.5-3,.7-1.7,2.4-2.2,5-1.5,9.9-1.9,14.9-3.8,10.5-4.1,14.2-10.9,27.1-12.4s25.6,1.4,26.2,4.4-5.3,1.6-6.8,1.5c-24.8-.8-23.9,5.9-42.8,12.2-7.5,2.5-13.5.1-21,.3Z" fill="#fff"/>
    <path d="M344.4,585c4.6-.3,10,2.7,10.7,7.5,2.1,13.9-23.4,14.9-25.7,7s9.6-14.2,15-14.5ZM347.9,594c-9.7-2.2-15,7-2.3,2.3,1.6-.6,2.8.6,2.3-2.3Z" fill="#fff"/>
    <path d="M265.9,641.8c.1-.1.3-1.5,1-2.1-.3.8-.7,1.4-1,2.1Z" fill="#fff"/>
    <path d="M266.9,639.7c.6-1.4,3.7-8.7,3.1-9.3-2.9-2.8-14.1,8.9-11.4,13.5.8.8,6.2-1.4,7.3-2.1-7.2,13.7-17.9,7.6-11.6-6.9,2.3-5.3,19.4-24.3,22.9-14.2,3,8.6-4.5,14.3-10.2,19Z" fill="#fff"/>
    <path d="M259.6,473.6c.3,8.8-14,12.4-20.5,9.6s-6.8-10.7-13.8-9.6c.3-.2.7-1.4,1.7-1.9,10.4-5.7,24.8-10.5,32.6,1.9ZM242.8,473.8c-8.8,1.5-6.4,8.7,4.9,6.9s4.9-8.6-4.9-6.9Z" fill="#fff"/>
    <path d="M648,441.4c1.3.5,3.3.3,4.2,1.7s2.5,7,1,8.1c-4,3.1-18,1.2-22.9-.5l-1-14.5c3.5.7,5.3,4.2,9.1,4.9s6.5,0,9.6.2Z" fill="#fff"/>
    <path d="M370.5,591.2c17.3-3.9,22.8,17.1,2.1,14-11.1-1.7-9.9-12.3-2.1-14ZM379.1,598.2l-8.3.5c.9,2.8,11.4,1.9,8.3-.5Z" fill="#fff"/>
    <path d="M663.6,409.2c11.1-4.9,13-17.3,15.5-27.6s-1-3,2.1-2.5v18.2c0,9.5-15.3,18.9-22.8,22.3-1.4-5.5,3.2-6.7,5.2-10.4Z" fill="#fff"/>
    <path d="M354.1,194.2c.4,5.5,4.8,14.1,1.3,19.4s0,1.9-2.3,1.3c-4.2-7.6-4.9-13.6-6.2-21.8l7.3,1Z" fill="#fff"/>
    <path d="M57.1,593c.6,9.3-2,20-8.3,27-2-7.4,1.2-18.8,5.6-25s0-2.6,2.7-2Z" fill="#fff"/>
    <path d="M104.9,711.4c-.4,1-1.8,6.1-2.1,6.2s-1.7-.3-2.3,0c-2.5,1.3-1.9,6.1-.8,8.3l-1,4.2c-1.3-2-3.1-2.6-3.9-6-1.9-8.1-.5-17.8,10.1-12.7Z" fill="#fff"/>
    <path d="M196.3,570.2c-4.1,5-9.4,12-16.6,9.3,2.1-6.6,10.4-8.8,16.6-9.3Z" fill="#fff"/>
    <path d="M409.2,606.5c-2.7,2.7-14.8-4.5-8.9-9.5s11.4,6.9,8.9,9.5Z" fill="#fff"/>
    <path d="M625.2,299.1c-1,.9-7.5,7.2-8.3,6.2.2-6.6,5.6-14.2,12.5-14.5-.8,2.3-1.4,3.8-2.1,6.2-.6.6-1.5,1.6-2.1,2.1Z" fill="#fff"/>
    <path d="M631.4,292.9c-.1,2.8,4.9,4.7,7.3,6.2-2,6.7-.7,13.9-1,20.8,2.6-1.7,1.8-5.8,3.2-8.7s4-3.4,6.1-4.8l17.7,18.7c-.9.4-.7,1.6-1,2.1-.2.4-.9.7-1,1-.3.6-.8,1.6-1,2.1-3.1,2.8-14.1,10.5-18,12.7-5.2,2.9-11.9,4.4-16.8,8.1-2.2-.5,3.9-9.9,0-8.3s-11.4,15.9-14.1,19.2-7.5,7.2-10.9,10.9c.3-2.3.3-5,1-7.3s4.8-7.8,1.1-6.2-16.3,19.3-21.8,23.9-9.5,6.8-7.8,2.6,6.3-6.7,5.2-7.8c-5.3,1.6-8.9,4-14.5,5.2-5.6-1.9-11.3-3.9-14.5-9.3,1.3-4.7,3.2-6.5,7.3-9.3l-2.1,12.5c1.8,1.5,4-4.5,5.7-6.2,2.6-2.8,6.7-4.7,8.9-7.8s3.4-9.8,6.3-12.4,13.6-6,18.3-8.7c16.4-9.4,16-17.5,24.1-32s5.8-9.9,6.4-10.7,1.1,1.6,2.1-2.1c1.2-1.3,3.2-2.9,4.2-4.2ZM611.7,338.6c6.2-4.4,8.2-13.8,10.4-20.8-6,5.1-8.2,13.5-10.4,20.8ZM630.4,341.7c1.2-1.2-.4-3.3-2.1-.5-.1.9,2,.6,2.1.5ZM573.3,368.7c.7.7,9-6.4,9.9-7.2,3.5-3.4,6.7-6.5,8.8-10.9-3.5.1-6.3,2.5-8.8,4.7s-10.9,12.4-9.8,13.5ZM607.5,358.3c.1-.1.7-2.5.5-3.1l-2.6,2.6c-.1.9,2,.6,2.1.5Z" fill="#fff"/>
    <path d="M668.8,329.2c-4.8,4.2-8.9,9.1-15.1,11.4.3-2.5,3.5-3.3,5.1-5.2s1.8-3.7,2.7-5.1c.7-.6.7-1.7,1-2.1s.8-.7,1-1c.1-.2.9-.5,1-1,2.1,0,3.4,1.3,4.2,3.1Z" fill="#fff"/>
    <path d="M715,711.4c1.1,0,8.3,10.3,4.1,11.4s-7.4-11.4-4.1-11.4Z" fill="#fff"/>
    <path d="M436.2,612.7c-5.6,2.7-15.2-7.5-6.7-7.4,3.2,0,7.5,6.7,6.7,7.4Z" fill="#fff"/>
    <path d="M669.9,430c-2,1.3-5.7,5.8-8.3,7.3-8.9-1.3,2.6-9.7,8.3-7.3Z" fill="#fff"/>
    <path d="M226.4,809c1.4,1.2,5.1,11.3,7.3,13.5-3.2,2.6-9.3-10.2-9.4-13s1.9-.7,2.1-.5Z" fill="#fff"/>
    <path d="M340.6,908.7c-3.3.2-6.4.4-8.4-2.5-5.8-8.5,11.2,0,8.4,2.5Z" fill="#fff"/>
    <path d="M740.5,743.6c1.8,1.5,5,9.7,4.2,12.5-3.2-1.8-6.6-8.5-6.2-11.9-.1-.9,1.9-.6,2.1-.5Z" fill="#fff"/>
    <path d="M572.2,876.5c2.4,3-8.6,5.3-10.4,4.1.6-3.3,8.6-6.5,10.4-4.1Z" fill="#fff"/>
    <path d="M789.3,493.3c-3.8,4.2-8.3,3.5-10.4-2.1,3.7.5,6.8,1.3,10.4,2.1Z" fill="#fff"/>
    <path d="M465.3,922.2c-1.9,2.6-7.4,2.8-10.4,3.1-.5-2.7.4-1.9,2.2-2.4,2.7-.8,5.3-1,8.1-.7Z" fill="#fff"/>
    <path d="M582.6,258.6l22.8,13.5c-3,3.9-6.6,14.4-7.2,19.3-1.5,13.3,4.7,18.1-4.9,30.4s-6.5,7.5-7.7,6.3c2.2-10.4,4.3-21,5.2-31.7s.8-3.9-1-3.6c-7.6,13.6-10.3,36.6-22.3,46.7-2.5,2.1-6.4,3.9-9.3,6.3-6,5-11.2,11-18.2,14.5l1-10.4c-1.8-2-7,9.2-9.8,3.1-4.1-8.7,10-15.4,11.9-22.8l-10.4,4.7c6.6-12.9,21.4-14.6,31.7-24.4.2-.2,5.3-3.2,2-3.1s-12,5.3-16.9,6-3.8,1.3-3.4-1.3c4.8-6.9,16.8-10.6,21.2-17.2,6.8-10.2,3.8-24.7,13-35.6.8-1,2-.6,2.1-.7ZM553.8,332.7c2.6-1.9,5.5-2,7-6-5.3,0-7.1,4.4-9.3,8.3,1.5,1,1.7-1.8,2.3-2.3Z" fill="#fff"/>
    <path d="M686.4,358.3c.5.3,4.1,9.9,4.6,11.6,3.4,12.7,2.7,26.4-8.1,35.1,2.5-9.8,4.6-19.3,3.7-29.6s-4.3-14.7-4.1-15.5c.3-1.4,3.1-2.2,4.1-1.6Z" fill="#fff"/>
    <path d="M389.5,197.3c.9,6.5,14.7,23,18.5,31.8s5.5,21.9,9,27.3c5.7,8.7,21,7.4,25.9,16.7.6-10-12.3-14.1-17-21.5s-5.3-16.8-8.9-24.3c-5.3-10.8-15.6-19.4-20.3-29,9.3,1.3,19.9,1.5,29.1,3.1s2.3.9,3.1,1c26.9,4.9,52.9,13.7,78.9,21.8,4.9,9.4,17.3,15.4,27.2,17.9s3.2,1.6,3.9.2c-6.5-4-12.7-8.2-18.7-13l51.9,22.8c-9.9,10.2-8.8,14.5-11.9,27-3.4,14-11.6,14.3-21.3,22.3-17.2,14.3-22.2,29-20.8,51.4l-4.2-1c-.7-3.3-6.4-17.7-6.1-19s3.7-3.7,4.8-6.7c2.6-6.5,3.4-21.6,8.8-26s8.2-1.2,5.9-3.4-7-1.3-9.4-2.5c-3.5-1.8-5.6-5.7-8.5-7.1s-7.7-1.3-11.1-2.4-4.7-3-7.3-3.1c1.8,6,11.5,6.4,14.2,9.1,4.2,4.2,7,34.9.8,40.2-.7,0-5.9-12.1-6.3-13.4-2.1-7.5-.5-13-5.5-20.5s-7.6-5.5-12.6-9.2-5.1-10.8-7.6-17.3c-5.5-14.5-20.9-21.4-34-27.7,5.7,7,13.6,12.9,17.8,21.1s4.8,13,5,19.4c-.4.5-5.4-5.2-6.2-2.1,1.9,1.7,6.6,3.4,8,4.5s3.1,5.9,4.8,7.6c4.2,4.2,12.9,6.4,17.3,11.2,9.8,10.5-13.3-1.4-15.6,0,6.5,7.9,18.5,11.3,22.3,21.3-8.4-5.4-18.1-7.8-27.5-10.9,5.7,7.7,22.8,15.7,27,23.4-15.6-3.8-30.6-8.3-41.5-20.8-4.7-15-16.1-32.6-27-44.2s-16.2-11.9-18.8-17.6-2.8-16.2-7.8-22.4l-4.7-3.6c2.4,6.1,7.6,13.4,4.2,20.2-2-6.5-8.9-15.5-15.6-17.7-1.1-11-10.1-25.8-13.5-37.4l20.8,2.1ZM431,209.8c2.3,5,6.7,9.4,12.4,9.9-1.5-1.6-10.8-11.3-12.4-9.9ZM454.9,211.9c-.3,1.7.8,2.8,1.6,4.1,2.1,3.2,6.8,10.8,8.7,13.1s3.5,2.3,5.7,3.6c-1.7-5.1-5.3-10.9-8.9-15s-6.1-6.9-7.2-5.7ZM528.6,257.5c-3.8-3.7-10.3-7-15.6-7.2,3.6,4.5,10.1,6.4,15.6,7.2ZM506.8,269c-.6-1.6-8.6-14.3-10.4-12.4s8.4,14.3,10.4,12.4ZM517.2,274.2c-2.1-.7-12.5-5-13.5-4.2-2.2,1.8,6.4,4.6,7.2,4.7,1.2.3,6.1,1.6,6.3-.6ZM543.2,283.5c-7.3.7-14.7.6-21.8-1.6,2.9,6.4,19.3,9.1,21.8,1.6ZM467.3,307.4c1-2.8-8.9-14-10.4-12.5-.2,2.2,8.6,14.3,10.4,12.5Z" fill="#fff"/>
    <path d="M797.6,640.8c-4-7.4-7-13.4-14.2-18.5-4.4-3.1-8.3-3.3-12.1-5.5s-5.2-5.4-8-7.5c-10.1-7.7-21.8-17.8-35.2-17.3.5-1.6,5.3-1.9,6.8-2.1,15.3-1.4,25.7-1.5,38.7,7.9,3.8,2.7,7.3,9.8,11.2,12.8,4.5,3.6,13.7,6.2,17.6,10.5,3.4,3.7,9.2,13.8,11.5,18.6s4.1,9.4,5.7,14.6c-.7-.8-2.9-1.8-3.6-3.1-1.7,4.3,5,5.4,5.7,9.3,1.1,6.4,1.8,14.7,2.2,21.3,0,1.3.4,4-1.1,4.7.7-4.9-2.3-9.7-6.2-12.5l4.1,12.5c-2.6-.9-6.1-11.7-8.3-15.1-6.2-9.5-9.6-11.2-13.5-23.3l1,2.1c5.8-.2-1.4-8.1-2.1-9.4ZM776.8,610.7l-11.4-8.3c-1.8,2,9.2,8.6,11.4,8.3Z" fill="#fff"/>
  </g>
  <g id="black">
    <path d="M236.8,202.5c8.3-15.9,12.2-31.3,19.6-46.4,9.9-20.4,33.5-38.8,48.5-55.4,6.2-6.8,10.2-15.3,16.1-22.3,23.7-28,77.7-58,114.7-58.7s15.5,1.8,23.8.9c11.8-1.2,23.9-8.3,36.4-9.3,27-2.1,47.7,12.7,72.7,11.4,18.4-.9,21.7-5.7,41.6,1,51.8,17.7,93.6,54.2,129.8,93.5,20.3,22,52.4,97.6,58.4,127.5s.8,10.3,1.6,15c2.8,17.2,6.7,19.3-.2,37.7s-10.1,15.3-11,18.1-.2,6.9-.9,10.5-3.7,6.3-4.7,9.9c-1.9,6.9,5.2,24.9-1.1,27.9s-6.9.1-10.4,1c-14.4,3.6-17.9,16-22,27.8-.6,1.7-2.9,2.7-2.9,4.4,0,4.2,13.8,12.9,17.1,16.2,9.2,9.4,11.9,23.1,3.7,34.2-7.1,9.7-27.5,18-38.4,10.9s4.5-34.7,14.5-26.9c2.9,2.2-.9,3.1-1.6,4.7-2.9,6.7,18.5,11.5,13.9-3.5-.6-1.9-12-8.2-14.1-8.8-11-2.9-28.7,11-30.3,22.2-1.6,11.6,1,21,12.2,26.1,15.4,7,24.7-.7,39.2-.8,5.4,0,16.2,1.7,22.3,2.2s10.5.8,16.8,2.4c10.2,2.5,32.5,13.5,40.8,13.2s28.9-13.6,33.2-19.8c2.2-3.2,8.5-24.5,8.9-28.6.5-4.7-3.9-18.2-6-22.9-5.2-11.7-16.4-18.9-24-28.9-14.5-18.9-20.6-45-8.8-66.9,10.2-18.9,36-28.1,52.4-12l-14.2,4.4c-16.7,13.3-14,35.4-1.4,50.6s23,17.8,33.3,27,6.5,9.2,10.3,12.5c5.3,4.6,9.4,4,13.1,11.9,3.6,7.7.9,9.4,1.7,15.9s8.2,16.7,9,25.3c.8,7.9-3.1,12.5-3.1,18.6,0,12.8,8.7,16.8-.1,34.1-2.4,4.8-12.8,12.7-13.1,13.9-.9,3.1-.4,8.7-1.5,13-1.9,7.3-9.8,18.6-16.6,21.8s-8.8,1.3-11.2,5.5-2.3,10.4-1.9,13.5c1.2,10,10.6,13.6,14.6,21.7s3.1,9.9,5.2,14.6c15.2,34,40,66.8,52.1,102.7,13.1,38.9-3.1,101.4-40.8,121.9-7,3.8-18,6.8-23.8,12.5-2.6,2.5-11.6,16-12.8,19.4-6.6,18.5,7.1,31.4,25.1,29.8-3.8,8.6-11.2,11.3-20.3,10.4-12.4-1.3-32.4-17.4-34.5-29.8-1.9-11,1.7-13,3.9-21.6,1.2-4.9,1-10,3-14.7s4.5-5.3,5.6-7.9.8-7.7,2.8-10.7,4.9-3.4,6.8-5.6c5.1-5.8,20.1-32,20.3-39,.2-7.5-3.1-26.3-6.3-33.2-5.6-12.1-13.7-15.6-26-19.2,1.6,15,1.4,27.8-1.6,42.6-2.3,11.3-4.7,25.4-7.4,36.2-2.6,10.2-8.9,14.5-12.6,22.7-5.8,13.2-4.8,16.2-15.3,28.3s-14.2,16.8-21.3,25.4c-12.6,15.1-42.1,22-60.2,29.6-16.9,7.1-42.6,18.9-39.5,41.5,2.3,16.9,23.9,11.7,33.6,5,2-1.4,12.4-13.2,14.2-11.2-.2,3.5.4,7.3,0,10.8-1.9,13.6-26.4,35.8-39.8,37s-29.6-2.3-34.5-4-8.2-5.7-12.8-6.4c-11.8-19.6-26.8-28.4-24.9-53.5,2.9-37.6,25.3-42.3,39.6-71.5s7.5-14.2.2-14.9c-11.3-1.2-20.2,17-25.9,24.5-21.4,27.9-45.1,53.6-75.9,71.6-11.1,6.5-23.4,10.5-34.6,16.3-17.3,8.9-29.5,19.6-50.4,21.3-6.5.5-14.5-.9-20.7,0s-9.1,4.2-13.3,5.4c-24.2,7.3-72.2,8.4-96.4,1.3-15.5-4.5-14.9-7.9-33.8-7.8-33.4.1-33.2-7.2-60-18.8-15.8-6.9-38.1-12.5-51.1-24.7-7.1-6.6-12.3-16.6-18.6-23.9-19.3-22.4-39.4-39.5-55.8-65.7s-9.2-20.5-16.9-28.8c-3,3.9-11.3,9.1-11.9,14.1s2.6,7.7,2.1,11.3-2.4,3.4-2.9,5.5c-4.5,20,1.5,50.3,21.3,60.4,11,5.6,21.2,5.7,32.5,1.2.5,11.3-15,22-24.9,24.4-41.2,10.3-77.6-46.2-78.7-82.4-.9-30.2,12.5-41.9,18.3-66.3,5.3-22.4-7.5-23.5-18-36.8-5.5-7-9.1-16-15.2-23.2s-14.6-13-20.1-22.4c-14.4-24.6-6.3-43.6-7.8-69s-5-30.4-1.8-49.5c5.2-31.5,32.6-54.3,36-84.9s1.1-1.2,1-3.4c-1-17.9-20.9-22.4-30.1-7-4.6-19.4,20.9-34,37.8-33.2s24.5,7.9,29.6,13.5,4.9,9.8,5.2,12.5c4.1,0,7.2-3.3,11-5s15.2-5.2,14.8-7.7-3.2-4.1-3.1-9.5,3.2-7.9,3.2-8.3c0-1.5-4.4-2.1-5.2-2.6-4.6-2.8-10.1-7.7-11.2-13.2s-1.8-27.9-1.2-32.9c1.1-9.6,7-16.4,9.6-24.7s3.4-17.2,10.7-26.7c23.4-30.6,75.7-6.5,46.6,26.8-2.5,2.9-4.6,4.7-8.7,4.2.4-2.8,2.6-4.5,3.6-7.3,8.4-22.3-24-19.8-27.3-2.3s.6,22.7,3,27.7c3.7,7.6,14.4,14,19.6,20.4s2.1,6.1,5.1,8.9,9.3,4.8,13.6,8.2,9.4,10.7,14.2,15.9c9.5,1,19.3.9,28.8,2.4,12.8,2,34.7,11,46.3,3.5,5.2-3.4,11.3-15.9,3.3-18.6s-2,.7-2.2.5c-.5-.9,1.1-4.1,1.1-5.7,0-5.3-7.5-11.5,4.7-10.9,8.5.4,13.3,5.7,18.7,11.5,2-6.3-13.9-17.8-18.8-18.6s-11,0-15.2,2.4-9.1,7.7-9.7,9c-3.3,7.2,9.1,23.7-3.7,21.4s-17.7-16.9-15.1-29.7,18.4-12.3,21.1-26.7-.3-4-.8-6.5c-1.3-6.2-3.5-9-7.3-14-4.3-5.7-19-18-20.8-21.8s-1.9-11.1-4.4-16.4c-4.6-9.8-12-13.4-15.3-26.8-2.1-8.6-7.1-32.1-6.1-39.9.5-3.9,3.1-8.8,3.8-12.8,4.4-25.5,3.7-29.8,15.9-53.2ZM605.5,272.1c3.6-4.8,11.3-9.1,13.7-15.9l10.2-25.6c1.6,18.3-5.6,34-14.5,49.3,4.7,1.9,8.7-3.2,11.2-6.4,9.7-12.5,19-30.8,20.9-46.6s-.4-10.4.2-15.4c1.1-9.5,8.1-20,6.1-30.7l3.2,8.9-3.2,21.3c1.5,1.8,7.2-9.1,7.8-10.3,12.3-24.1,8.7-46.1-1.4-70.3l-11.6-15.9c25,9.9,33.6,42.5,32.2,67-.6,11.2-5.5,20-7.2,30.6,14.2-13.4,13.7-35.7,14.5-54,1,0,2.1,5.4,2.1,5.7v27.5l2.8-8.1,3.5-22c1.5.1,1.8,4.6,1.9,5.8.3,2.6.1,5.1.1,7.7.2.3,1.3-.5,1.6-1,1.4-2.8,3.4-17.6,3.6-21.3,1.3-23.6-10-50.3-27-66.5-20.1-19.2-52.6-40.1-81-39.5l19.2,20.2c-13.2-7.3-25-22.5-41-22.3,6.7,6.2,15.4,12.3,21.3,19.2s8.2,13.3,13,19.2,17,12.8,18.6,22.9-.9,9.2-1,14l-2.4-10.6c-3-9.5-13.2-13.4-20-19.5-6.3-5.6-9.5-12.8-15-18.2-11.6-11.5-56.2-32.8-72.3-34.6-22.1-2.5-61.3,15.4-78.3,29.5-7.8,6.5-13.7,15.9-21.3,22.4s-11.9,9.3-9.9,4.7,6-5.7,7.7-7.9c5.4-7.2,9-16.5,15.2-23.3s12.6-9.9,17.6-15.1c-31.9-1.8-60.8,10.9-87.2,27.6-21.9,13.8-33.6,34.4-36.3,60.3-.9,8.9-2,24.3,5.1,30.5,0-4,.3-8.9,1.3-12.7s1.3-4.8,2.8-5v27.5c0,2.1,3,15.3,3.8,18s.7,3,2.4,3.3c-.8-9.7.8-18.3,4.4-27.3l3.9-8c-.3,6.2-2.1,13.1-2.1,19.2s1.4,8.6,2.1,13c1.4,8.2,2,14.2,6.2,21.8,2.4.5,1.7-.3,2.3-1.3,3.5-5.4-.9-13.9-1.3-19.4-.8-10.6-.6-26.4,2.4-36.6,3.6-12.5,13.8-23.5,21-34-1.5,9-5.9,17.2-8.3,25.9-4.6,16.8-5.4,28.9-.5,45.7s12.4,26.4,13.5,37.4.2,13.5,0,19.2.8,3.9-1,3.6c-3.5-11.4-2.8-21.5-11.4-30.7s-3.7-4.6-6.3-4.6v15.1c0,1.1,1.2,8.5,1.5,9.9s2.3,4.2,3.7,5.7l-3.1.5c-1.8,2.7,9.5,22.4,12.5,25.4,5.1,5.2,10.3,7,17.6,5.2-2.7,3.9-7.5,3.6-11.4,5.2,4.7,4.5,10.4,5,14.5,10.4s4.7,11,7.2,14.3,7.9,4.8,10.4,7.5,5.2,8,5.2,9.3v15.1c-7.6-6.5-7.4-19.3-16.2-24.8s-5.1-1.6-7.3-3c-6.8-4.2-4.5-15.8-13.8-19.5s-6.8-1.7-7.8-1.6c-1.4.2.6,3.5-1.6,3.1.2-2.9-3-2.5-4.7-4.1l-.5,4.1c.1-1.2-.5-1.7-1.3-2.4-16.5-14.1-20.6-23.1-30-41.6s-6.8-12-6.1-1.1c1.1,18.5,2.4,24.2,15,38l12,20.7c-1.8-3-5.6-4-7.3-5.6-6.3-5.9-14.9-20.8-25.2-18.3s-10.1,15.9-10.7,18.7c-2.5,12.1-2.7,32.6,13,34.3-4.4-6.7-7.3-14.1-6.2-22.3s3.4,3.8,3.8,4.6c.8,1.5,5.2,10.1,5.6,10.5.7.6,1.5,0,2.1-.7,6.3-6.7,8.1-9.9,19-8.6,11.6,1.4,11.2,7.4,18.3,12.8s8.9,5.1,9.3,4.7c-2.5-5.5-9.7-10.2-11.4-16.1s.2-2,1.5-1.5c2.3.9,14.1,9.4,16.6,11.4,7.8,6.4,14.9,16,19.3,24.9,1.9.2.8-2.1.6-3.2-.8-3.4-2.1-8-3.2-11.4s-5.2-7.2-3.1-11.4c4.9,6.4,7.3,15.1,11.5,21.7s18.6,21.1,19.9,21.9c2.2,1.2,8.9,2.6,11.6,2.6-6.1-6.1-12.5-12.4-16.1-20.2,3,2.3,6,5.5,8.9,7.7s16.1,12.3,18.9,13.3c11,4,19.4,1.9,18.5-11.2-1.3-19.5-29.3-21.9-33.9-37.8s-.3-5.1-1.3-8.1-14.1-23.4-17.4-26.3-11.8-4.5-16-10-3.6-5.6-1.2-5.5c2.2,4.2,10.6,7.9,15.6,7.8-7.8-9.4-16-13.1-20-25.7-1.5-4.8-1.5-9.9-2.8-14.3,3.4-6.8-1.7-14.2-4.2-20.2l4.7,3.6c5,6.2,4.8,16,7.8,22.4s13.9,12.3,18.8,17.6c10.9,11.6,22.2,29.1,27,44.2s.8,6.3,1.8,9.1c4.5,13.2,21.9,15.4,31.5,24.6,2.8,2.6,9.4,13.4,10.9,14,3.1,1.3,1.1-8.1.8-9.1-1.3-4.9-7.3-9.8-7.6-12.1s3.6-1.9,5.2-2.6c.6-1.8-.6-2.2-1-3.1-4.2-7.7-21.2-15.7-27-23.4,9.4,3.1,19.1,5.5,27.5,10.9-3.9-10-15.8-13.3-22.3-21.3,2.2-1.4,25.3,10.5,15.6,0s-13.2-7.1-17.3-11.2-3.2-6.3-4.8-7.6-6.1-2.8-8-4.5c.8-3.1,5.8,2.6,6.2,2.1-.2-6.4-2.1-13.7-5-19.4-4.3-8.2-12.1-14.1-17.8-21.1,13.1,6.4,28.5,13.3,34,27.7s1.4,12.8,7.6,17.3,8.4,2.8,12.6,9.2,3.4,13,5.5,20.5,5.5,13.5,6.3,13.4c6.2-5.3,3.4-36-.8-40.2s-12.4-3.2-14.2-9.1c2.5,0,4.9,2.4,7.3,3.1,3.5,1,8,1,11.1,2.4s5,5.2,8.5,7.1,9.1,2.2,9.4,2.5c2.3,2.2-4.7,2.4-5.9,3.4-5.5,4.4-6.2,19.4-8.8,26s-4.5,5.3-4.8,6.7,5.4,15.7,6.1,19c1.3,6.5-1,14.1,5.7,19.7,2.4.5,1.7-2.1,1.5-3.6-.4-4.9-2.7-8.8-3.1-15.1-1.5-22.4,3.5-37.1,20.8-51.4,9.7-8,17.9-8.3,21.3-22.3,3.1-12.6,2-16.8,11.9-27,10.3-10.6,18-13.4,24.8-28.7,7.2-16.2,3.6-23.1-2.5-38.8,6.5,6.3,13.6,19.3,12.9,28.4s-3.8,9.1-4.1,12.7,1.1,4.2,1,6.1c-.3,5.6-17.2,21.4-21.8,26.5s-1.3-.3-2.1.7c-9.2,10.9-6.1,25.4-13,35.6-4.4,6.6-16.4,10.3-21.2,17.2-.4,2.6,1.9,1.5,3.4,1.3,4.9-.7,13.8-5.9,16.9-6s-1.8,2.9-2,3.1c-10.3,9.8-25.1,11.5-31.7,24.4l10.4-4.7c-1.9,7.5-16,14.1-11.9,22.8s8-5.1,9.8-3.1l-1,10.4c7-3.5,12.2-9.6,18.2-14.5s6.8-4.1,9.3-6.3c12-10.1,14.7-33.1,22.3-46.7,1.8-.3,1.1,2.5,1,3.6-.9,10.7-3,21.2-5.2,31.7,1.2,1.2,6.8-5.2,7.7-6.3,9.5-12.3,3.4-17.1,4.9-30.4s4.2-15.4,7.2-19.3ZM724.9,151.6c-5.2-6.4-5.9-16.8-9.3-24.4l-5.2-11.9c-1.1,16.1,6.7,32.1,5.1,48.2-3,28.6-18.5,43.6-25.3,68.2-.8,3.1-1.9,6.1-1.6,9.3,1.5-.6,2.9-3.7,3.7-5.1,5.9-11.7,11.1-22.8,20.7-32.2.6-.6,1.7-2.4,2.6-1.6,2.1,1.9,2,5.2,3,7.4,2.2,4.9,3.4-3.9,4.5-6.1,1.7-3.4,4.7-6.1,5.4-10.2.8-1.5,2.9.4,3.5,0,1.1-.8,7.8-21.9,8.2-24.6,1.8-11.4-8.1-23.9-14.8-32.5-.1,5.3.2,10.2-.5,15.6ZM327.1,217c1-1.1-10.9-23.4-12.2-26.7-3.9-10-9.8-29.8-9.6-40.2.1-8.6,4-19.6,5.1-28.2s.9-3.8-.9-3.5c-1,1.5-7.2,21.3-8.3,19.7-1.4-2.4,3.2-9.2-1-8.3-1.2,6.3-6,12.1-7,18.4-2.2,14.3-2.4,37.7,5.1,50.5s17.2,21.2,18.5,22,1.8,1.2,2.1,0c.4-5.4-11.1-17.3-12.5-23.4,4.1,4,8.5,7.8,12.5,11.9s6.6,9.5,8.3,7.8ZM315.7,269c1.2-1.4-7.2-13.1-7.8-15.5s0-6-.6-8.8c-3.8-18.6-20.1-31.6-25.3-52.5-3.8-15.2.4-23,1.5-36.9s.8-3.9-1-3.6c-3.5,7.4-5.8,15.3-8.9,22.8s-13.3,20.9-5.7,29.1l2.1-3.1c-2.2,2.8,5.3,21.6,8.3,18.7l-.5-4.1c8.7,6.3,13.7,13.5,18.7,22.8l1.5-6.2c3.4,6.5,1.8,17.1,3.7,22.8s12.6,16.1,14,14.6ZM732.2,235.7c5-5.4,11.3-14.3,15-20.8,4.6-8.3,6.6-18,6.9-27.4,0-2.7-.3-5.2-1.1-7.8l-8.1,20.4c-8.5,19.2-25.7,25.1-34.2,45.7-.4.9-.9,3.2.8,1.8,6.1-9.8,13-19.8,23.4-25.4l-2.6,13.5ZM631.4,292.9c-1,1.3-3,2.9-4.2,4.2.6-2.4,1.3-4,2.1-6.2-6.9.3-12.2,7.9-12.5,14.5.8,1,7.3-5.3,8.3-6.2-.7.8-5.4,8.9-6.4,10.7-8,14.5-7.7,22.6-24.1,32-4.7,2.7-14.9,5.6-18.3,8.7s-4.1,9.2-6.3,12.4-6.2,4.9-8.9,7.8-3.9,7.7-5.7,6.2l2.1-12.5c-4.1,2.9-6,4.7-7.3,9.3-3.1,11.3,6.2,11.1,14.5,9.3,5.6-1.2,9.2-3.6,14.5-5.2,1.1,1.1-4.7,6.5-5.2,7.8-1.7,4.3,6.9-1.8,7.8-2.6,5.5-4.6,17.1-21.9,21.8-23.9s-.8,5.4-1.1,6.2c-.7,2.3-.7,4.9-1,7.3,3.4-3.7,7.7-7.1,10.9-10.9s12-18.3,14.1-19.2c3.9-1.7-2.2,7.8,0,8.3,5-3.7,11.6-5.2,16.8-8.1,3.9-2.2,14.9-9.8,18-12.7-.9,1.5-1.1,3.3-2.7,5.1s-4.9,2.7-5.1,5.2c6.2-2.3,10.2-7.2,15.1-11.4s6.7-7.1,8.6-7.1,3.8,2,5.6,2.5,4.3-2.1,5.3,3.2-.9,2.4-.3,3.4c5.9-3,8.6-8.9,13-13.5.1,2.5-1,4.7-1.9,6.9-1.4,3.3-8.3,11.5.1,8.4,9-3.2,12.7-26.3,4.4-33-3.1,7.6-14.2,10-21.3,13.5,1.7-8.2,18.9-15.1,16.2-23.9s-8.3-1.6-12.4,1.3-10.1,9.5-16.3,12.8l13.3-18.9c1.1-3,5.1-8,4.4-11.1s-1.8-.6-1.9-.8c-.6-1.1,6.7-14.1,6-17.5-3.9,5.7-9.7,10.3-13.9,15.7-13.5,17.4-10.4,21.3-30.7,35.2s-4.4,1.6-6.1,4.8-.6,7-3.2,8.7c.3-6.9-1-14.1,1-20.8,10.9-10.7,25.4-20.9,27.9-37,1.8-11.5-1.3-22,6.3-32.1s11.2-10,9.3-11.9c-7.6,1.8-13,7.1-17.5,13.2-13.5,18.1-18.9,42.9-33.4,61.6ZM301.2,285.6c-3.4-10.2-15.4-13.8-22.2-21.9-11.5-13.7-13.2-32.5-26.6-44.6,1.7,6.8.3,14.1,2.6,20.8s2.8,6.6,4.7,5.2v-6.2c3.7,10.7,10.6,20,17.1,29.1l24.4,17.6ZM772.7,234.7l-.5-6.3-3.7-8.3c-1.4,11.7-24.4,24.1-25.9,33.8-.9,6,.3,12-2.4,18.4-2.3,5.2-7.6,7.2-11.1,11.2,18.4-2.2,16.2-21.5,24.1-32.5s5.6-4.4,8.1-7.4,7.4-15.1,10.4-12l1,3.1ZM357.2,267.9c-7.2-14.5.4-38-18.7-43.6-.7.7,6.5,13.6,7.3,16,2,6.2,1.8,13.5,5.4,19.5l5.9,8.1ZM758.1,261.7c2.7-5,6.4-8.2,6.2-14.5l-6.8,10.3.5,4.2ZM266.9,282.5c-3.3-4.6-6.8-9.2-11.4-12.5-.2,6.6,5.6,10.9,11.4,12.5ZM764.4,270c-2-2.3-6.7,9.6-7.3,10.4,1.6,1.7,9.2-7.5,7.3-10.4ZM750.9,301.2l10.4-8.8c-2.2-.4-11.9,7.1-10.4,8.8ZM259.4,294.2c-.7-.4-2.7-.8-2.9.2l9.9,7.8c-.7-3.9-3.7-4.7-6-6.2s-.8-1.7-1-1.8ZM267.4,303.3v1c.7-.3.7-.7,0-1ZM726,306.4c-1.4,10.9-1.8,21.9-5.5,32.4-2,5.6-5.6,10.3-8.6,15.3,17.9-6.7,17.4-22.4,17.2-39l-3.2-8.8ZM315.7,358.3c1.5-11.1-10.8-15.2-14-23.9l-3.7-22.8c-2.8,8.1-4.3,16.6-1.6,24.9s16.2,25.1,19.2,21.8ZM603.4,391.5c18,15.4,45.4,13,52.2-12.7,8.3-31.3-10.7-25.3-26.8-10.2-8,7.6-14.5,19.4-25.4,22.9ZM339.6,383.2c-.3-.3-2-7.7-2.1-8.8-.6-6,1.3-11.3,1-17.1-4.7,1.5-4.9,3.8-5.9,8.1-3.7,16,.2,29.2,12.7,39.7.7-2.9-1.7-6.1-2.4-9.1s-1.1-3.6.8-3.4c3.3,9.7,10.9,23.4,19.7,28.6s16.5,6.4,25.4,5.6l9.9-4.1c-8.6-.2-22.5,1.5-27-7.3,11.2,2.9,21,5.7,32.2,1l-20.8-2.5c-16.3-4.8-26.4-18.9-30.1-34.8-2,0-1,4.4-.9,5.6.9,8.2,5.3,16.6,5.6,24.5-9.9-10.8-13.5-26.1-13-40.5-2.7-.5-1.9.4-2.4,2.2-1.1,4.1-.3,7.1-.7,10.8s-.7,3.1-2.1,1.5ZM417.5,392.5c-6.4-6.6-13.2-12.7-19.8-19.2s-9.8-13.5-21.3-15-10.1,2-9.8,10.8c.4,14.2,8.5,24.9,22.1,28.9s19.6.7,28.9-5.5ZM686.4,358.3c-.9-.6-3.8.2-4.1,1.6s3.8,11.9,4.1,15.5c.9,10.3-1.2,19.8-3.7,29.6,10.8-8.7,11.6-22.5,8.1-35.1-.4-1.6-4-11.2-4.6-11.6ZM323,401.9l-3.6-30.1c-7.1,8.4-5.5,23.7,3.6,30.1ZM663.6,409.2c3.5-6.5,6.8-16,7.3-23.3s.7-4.9-1.1-4.7c-2.2,6.9-7.2,17.4-12,22.8s-12.1,9.4-13.4,9.4h-22.3c6.3,6,18.2,2.6,26,1l-12.4,5.8-7.3.5c-.4,2.4.1,1.7,1.3,2.3,4.8,2.6,12.3,3.9,17.7,2.7s4.8-4.4,7-5.5,3.5-.3,4.1-.5c7.6-3.4,22.8-12.9,22.8-22.3v-18.2c-3.1-.5-1.7.8-2.1,2.5-2.5,10.3-4.4,22.7-15.5,27.6ZM698.9,403c5.8-3.4,8.9-11.6,8.2-18.1-.4-3.4-3.7-9.6-4.1-3.3s-1.5,13.4-4.1,21.3ZM894.2,387.4c2.2-2.4-6.2-9-9.3-7.3-2,1.8,8.7,7.9,9.3,7.3ZM496.7,392.3c7,7.6,27.7,2.4,27.7-9-9.6,9.5-20.9,3.4-32.2,2.1,2.1,1.7,3.1,5.5,4.5,7ZM916.8,410c5-5.1-3.1-17.6-10.1-16.4-.4,2.7-2.1,5.1-2.2,7.8-.2,5.8,7.7,13.1,12.3,8.5ZM607.5,551.5c-1.5-1.9-2.4-5-4.7-7.3-4.5-4.6-13.9-11.2-20.2-12.5,4-9,20.4,6.8,21.8,5.2,0-4.3-1.3-8.8-3.7-12.4s-15.3-14.3-18.1-16.1-5.2-1.2-7.2-3.2c8.6-4.5,14.8,3.9,22.8,5.7-1.9-18.1-14.8-29.8-32.2-33.2-.3-1.3,1.9-1.7,2.8-1.8,6.6-1,11.7,1.6,17.9,2.8-6.9-14.6-21.4-17.9-36.3-14.5,6.1-9,20.2-5.7,29.1-3.1-2.9-8.6-20.3-15.8-28.3-14.3-6.7,1.3-10.3,7.4-16.3,9.1,5.8-14.1,24-17.1,37.4-12.5-2.5-9.5-7.6-13.1-17.6-11.4l6.2-4.1c-5.8-.3-10.7-.3-16.1,2s-14.3,10.1-15,9.4c.9-7.5,9.8-15.2,16.6-17.2s10.1-.4,13.5-4.1c-1.1-2.6-6.4-2.1-7.1-2.8s.8-4.1-4.9-3.8-9.9,4.1-11.4,5c-2.8,1.7-11.4,13.2-12.8,16.3-2.4,5.2-1.7,11.4-9.5,13.4s0-10.9.8-12.7c5.7-11.7,16.5-23.4,22-35.6-.7-.7-6.8,4.4-7.8,5.2-3.4,2.9-17.6,19.2-12.5,5.2,1.7-4.7,4.3-6.4,6.7-10.4-4.9,0-10.5,4.2-15.1,4.2s-8.4-4.3-13-5.2c3.3,4.9,9.1,7.9,11.4,13.5-4.1,2.1-19.8-9.1-20.8-8.3,6.4,13.5,20.9,23.3,20.8,39.5-7.9-2-7.9-8.9-11.6-14.9s-9.9-13-15.9-13.2-9.6,1.8-9.8,2.2c-2.3,3.6,2.8,2.9,4.9,3.9,4.6,2.2,20.7,15.2,23.9,19.2s3.3,10.7,4.5,14.2c-11.2-8.6-16.4-25.1-32.7-26s-11.3,1.5-11.9,2.1-.2,3.9.9,4.7,5.4.2,7.6.7c4,1,15.3,6.7,19,9.1,9.1,5.9,16.5,16.9,14,28.1-1.9.4-2-.5-2.9-1.7-3.6-4.7-6.1-12.6-10.1-17.9-9.4-12.4-12.3-11.2-26.4-8.4-1.2.2-3-.3-4.2,0-1.8.4-4.3.8-5,2.8-1.8,4.6,1.1,3,3,3.5,4.2,1.2,8.3,1.5,12.5,2.6s5,.9,5.2,2.6c-5.6-1-15.3-.6-20.8,1s-16.7,13.7-18.7,20.3.3,1.4,1.5,1.5c3.8.5,8.4-1.6,10.9-1s1,1.3,2,1.6c5.5,1.4,11.2,2.7,14.6,7.8-6-.2-12.9-2.8-18.7-3.1-10.5-.6-8.5,4.6-13.5,6.7s-9.1-.9-10.4,6.8c3.4-.8,9.6-.3,12.5-1,5,3,12.7,5.1,14.5,11.4-6.8-3.3-12.3-4.3-19.7-5.2s-1.5-1.1-3.6-1.2c-6.2,0-16,8.3-21.3,12.1-2.9,2.1-2.3,4.7-8.1,5.4s-5.4-1.5-9-1.9-9.4-.3-12.5,0-18.3,5.4-15.1,8.3c9.1-2.8,17.4,0,24.9,5.2s9.5,9.2,12.5,14.5c-.7.7-8-5.5-9.7-6.4-2.8-1.5-8-3.4-11.1-4-13.5-2.7-24.4,3.4-37.4,5.7l-1,1.6c3.3-1.1,7.9,1.2,10.4,1,6.4,5.4-3.4,1.3-6.8,1.1s-7.6.3-11.9,1c-6.5-4.4-15.1-5.7-22.8-5.2l7.3,7.2c-6.3,1.6-14.5-3-20.2-2s-15.4,7-19.5,8.6c-32.7,12.8-59.1,28.8-80.2,57.9s-10.9,21.4-17.4,31.4-8.4,9.3-9,11.9,2,3.1,1.8,5.7c-.5,5.8-6,17.8-7.7,24.6-8.1,33.8-8.5,66.4-4.2,100.8l5.7,14.5c2.1-10.4-4.4-18.1-4.1-28,3.2,3.1,3.8,9.3,5.2,13.5,1.8-.6,1.2-6.4,1-7.8-.7-5.3-3.6-11-5.2-16.1l11.4,8.8c5.1,7.2-1.7,22.2,3.3,33,7.2,15.3,26.8,21.7,32,39.6,1.4,4.9,1.8,17.2,8,19s13.8,2,20,4.9c10.4,4.8,15.8,23.8,23.9,33.2,13.2,15.4,20.9,6.7,36.2,11.6,7.9,2.6,13.6,11.7,20.2,14.1,6.2,2.2,13,1.9,18.9,2.9,12.5,2.1,21.2,11.5,34.3,13.5.6,0,1.7.3,1.6-.5-5.3-5.3-11.6-9.5-18.7-11.9l-9.3-5.2c-.3-1.4.4-1.1,1.6-1.1,4,0,18.9,3,22.8,4.2,6.4,2,11.6,9.8,19.3,6.7l-6.2-4.7c11.4-1.2,17.2,14,28.6,13.6s13.3-4,19-5c5.7-1,14.8-.5,19-1.8s6.1-4.9,8-6.5,2,0,1.3-2.4c-17.1-2.2-27.8,10.5-45.1,8.2s-17.2-8.8-25.3-11.1c-5.9-1.7-12.2-.7-18.2-1.6-6.6-1-12.9-5-19.4-6.5-5.2-1.2-10.5-.6-15.9-2.8s-12.8-9.1-18.8-12.4c-10-5.5-22.6-9.7-32.6-15.2-15.6-8.7-19.6-24.1-30.5-37-9.4-11.2-21.9-17.7-26.2-33-1.5-5.4-1.1-10.4-2.2-15.4-1.3-5.9-6.8-13.2-7.9-19.7-2.6-1.9-5.4,17.9-4.2,19.7-1,.4-2.1-2.4-2.1-2.6v-16.6c0-1,3.9-8.9,3.1-9.9-1.9-2.3-4.4,6.5-4.7,7.2l-1.5,14.6c-3.2-8.1-2.5-17.4-.3-25.8s7.3-13.7,5.5-22c-6.2,1.6-8.3,9-9.4,14.5-4-2.8-1.9-11.6-.5-15.6s5.4-8.4,6.9-12.8c5.1-14.7-2-9.9-7.9-1.7-2.4,3.4-5.1,7-4.8,11.3-1.5-.1-1.8-5.7-1.7-6.6.9-13.2,17.4-19.7,14.7-32.9l-12.5,13.5c-5.7-9.5,24.2-30.1,19.2-35.3-12,1.2-22.7,14.5-27,24.9-1.9-.2-1.2-5.6-1-6.7,4.3-21.7,33-22.7,37.3-43.2-7.6,1.3-14.8,4.2-21.4,8.1s-1.7.8-1.5,2.2c-2,.2-.7-2-.2-2.8,3.2-5.4,15.1-14.1,21-16.4s12.7-1.5,11.3-7c-1.3-5-12.5-2.5-16-.7-2.2-1.6,4.1-4.9,5.9-5.6,6.1-2.1,19.9-1.1,23.6-6.5s-6.9-5.3-10.8-6.7h-6.2c6.9-7,18.2-.5,25.8-2.3s9.9-5.6,9-8.5-7.2-4.2-8.9-5.7l-10.8-4.3c4-1.2,8.7-1.5,12.9-1s10.6,5.7,14.6,5.1,10.5-11,15.2-12.2c3.8-6.1-5.6-9.8-9.7-11.9l-10.1-2.9c10.8-7.7,25.1,10.9,33.6,8.1,1-.3,2-1.3,1.7-2.4s-6.1-7.3-6.7-7.8c-3.1-2.7-7.7-3.1-10.9-5.7,5.8-1.2,15.9,1.2,20.4,5s2.1,3.9,4.6,5.3,10.1,3,9.3-.9-12.6-9.5-14-13c3.7,1.4,7.3,1.6,11,3.6s9,7.8,11.9,7.8h31.7c-1.1-11-15.1-13.8-20.3-22.8,7.4,3.7,18.5,5.8,24.7,11.4s8.7,13.3,10.9,14.6c3.1,1.8,12.6.9,16.9,3.1-.7-13.6-.2-28.6-12.5-37.4,12,.8,19,8.8,22.3,19.7,1.3,4.3,3,11.5,1.5,15.6,7-.4,7.8-6.7,6.2-12.4l2.1,3.1-2.6-19.7c6.3,5.8,7.5,14.7,7.8,22.8,2,2.6,5.2-9,5.2-9.9v-17.7c0-1.2-3.2-4.2-1.6-5.7,9.3,8,6.3,19,9.3,29.1,3.2-5,7.8-10.1,6.7-16.6l-2.1,2.1c1-7.4-1.4-13.7-2.1-20.8,2.1-2.3,11.7,14,11.9,16.6l2.6,19.7c4.8-11.7,7.5-26.8-1-37.4,3.1-2.5,12.9,12.3,12.5,15.6l3.1-8.9c.9-6.6-6.7-15.4-11.4-19.7-1.6-3.8,7.9,0,9.3,1.1s5.9,8.8,6.8,8.7,3.3-5.6,5.7-4.7c-3.2,5.4-1.6,11.8-2.1,17.7s-2.2,8-1.5,12c8.6-9.7,7.5-33.8.4-44-1.1-1.5-3.1-1.1-3-2.7,10.3,1.2,13,8.8,15.1,17.6s-.5,7.1,2.5,8.4c1.7-5,2.8-9.4,1.8-14.8s-5.6-17.9-7.1-20.8-2.4-.2-2-1.8c9.2,1.9,10.8,13,17.6,17.6,1.7-6.1-1.8-13.2-2-18.3s1.3-4.3.9-7.1-6.3-11.7-5.2-13.1c2.8,2.6,6.3,4,9.3,6.2s.9,2.2,1-.5-.1-6.3,0-9.4-.8-3.9,1-3.6c2.5,7,4.1,14.2,6.2,21.3s.4,3.4,2.1,1.5,3.3-9.9,4.6-12.5,4.9-5.7,5.5-8,0-5.2.5-7.8c1.2-5.6,11.3-15.7,15.9-19.4s1.7-2.5,3.6-2.1c-1.7,8.8-8.3,14.6-13.5,21.2s-2,4.9-5.1,6.3c.9,1.6,2.3-.3,3.2-.9,2.3-1.5,7.2-6.2,8.7-6.9s1.9.2,1.5,1.5c-1.6,5.3-7.5,12.5-9.8,18.2-4.4,10.9-7.8,26-4.2,37.4,5.5-10.7,5.9-24.3,17.1-31.2-4.1,12.5-9.1,22-8.3,35.9s1.1,9.5,3.1,6.7c-.3-7.1,3.2-16.4,9.9-19.7.3,4.1-3.6,9.1-3.6,13v23.9c0,.2,1.4,1.6,2.1,1.6.4-15.6,11.1-26.7,26.5-29.1-2,4.3-6.8,4.8-10.4,8.3-11.7,11.4-13.3,27.4-8.8,42.6l6-27.7c1.9-3.7,11.5-11.5,15.3-12.8s1.7-.3,1.5.5c-6.6,7.7-14,16.7-12.4,27.5,3.7-2.2,8.1-7.8,11.5-9.8s13.5-5.4,14.2-5.6c3.8-.8,8.1.3,10.6,3.4-2.2,2.8-5.3.4-8.7.6-6.4.4-15,5.4-18.3,10.9-4.8,8-9.6,29.1-8.1,38.2s1.5,4.9,2.9,4.9c-.3-3.1,0-7.6,3.1-9.3l.3,6.5,3.9,8c2.1-12.5,1.3-33.2,18.7-33.2-7.2,4.6-9,17.4-9.3,25.4-.5,12.4,5,26.2,10.8,36.9.6,1.2,1.1,2.8,2.6,3.1-3.2-14-2-27,13.5-31.7-9.8,11.1-10.7,28.7-1,40-1.5-5.9-1.6-13.1,3.1-17.7-2,14.8,4.3,25.9,15.1,35.3,3.5,3,3.7,2.8.5-.5v-15.6c0-.4,2-3.6,3.1-3.6.4,4.8.4,11.1,1.5,15.6,1.8,7.6,9.6,12.6,9.9,20.7l-24.4-17.6c-.8-.2-.7,1.1-.5,1.5.9,2,9.1,7.3,11.4,9.3,11.5,10.5,24.1,21.1,25.8,37.5,2.7,26.1-2.3,58.9-4,85.6-3.8,5.9-9.7,13-12.3,19.3s-1.9,8.2-3.5,12.1c-5,12.7-20.4,28.7-30.9,37.6s-6.4,3.9-9.4,6.2c-.2,2.7.5,1,1.8.8,3.5-.6,7.1-2.2,10.6-1.8-9.3,9.2-22.1,10.2-33.5,16.3-11.2,6-20.4,17.6-29.8,22.6-5.2,2.8-23.5,6.9-31.2,9.3s-3.4-.9-3.1,1c11.8.8,22.4,5,34,1.3,15.3-4.7,10.8-11.5,19.6-17.8,6.9-4.9,12.8-4.7,20.1-6.4,15.7,5.8,21.4-12.1,31.1-20.3,6.2-5.2,15.2-6.7,18.2-14,2.5-6.1,2.6-12.7,8.3-17.6,2.1-.4,1.8,1,1.5,2.5-1,5.4-6.5,10.7-4.6,16.2,8.7-5,7.1-22.5,13-27.5s5-3.2,4.1,0c-1.5,4.9-7.2,9.5-5.2,16.1,13-1.3,9.3-10.2,10.5-19.1,2.3-16.5,11.1-18.1,17.6-30.2,7.7-14.4,1.9-22,1-36.4-1-15.9,2.5-27.5,12.4-40,.4,11.2-4,21.5-3.1,32.8.6,8,4.6,17.1,5.2,24.9s-1.7,11.3-1,17.1c11.3-13.9,2.7-30.9,3.1-46.7l6.2,13.5c-.9-8.6,5.6-17.8,6.2-25.6s-3.2-17.6-4.1-24.8c-1.1-8.9-.6-18.8-2.6-27.6-2.2-10-12.6-24-18.2-32.7l3.1-1c-6.2-11.7-11.8-25-23.9-31.7,2.5-3.7,2.9.9,3.1,1,.7.6,2.7.2,2.1-1.5s-7.4-11.7-9.3-13.6c-8.5-8.1-21.9-9.6-31.2-16.6,5.8-2.4,13.6-.1,19,2.7s.2,2.4,1.8,2c-6.3-20.2-26.6-27.8-43.6-36.9,8.7-3.9,17.3,3.1,24.9,6.8.9-1.2-4.8-12.3-6-14.2s-2.8-2.6-3.3-3.4c-.1-.2-.7-.8-1-1ZM445.5,406.1c-.1,0-2,0-2.1,0-.5.4,4.5,11.2,7.3,11.4,1-1.8-4.5-10.9-5.2-11.4ZM583.7,420.6c3.3-2.6,2.7-9.6,3.1-13.5-3.5,2.8-2.9,9.5-3.1,13.5ZM420.6,414.4c-6.5,6.5-20.9,20.8-29.8,22.6s-29.9-3.5-36.3-6.8-12.9-14.5-19-22c-1.2,15,7.5,28.5,23.9,26-2.8,3.4-8.1,3.8-11.9,2.1l-.5,2.1c15.5,5.7,27.9,17.6,45.4,11.6,15.3-5.2,26.1-19.8,28.4-35.5ZM433.1,427.9c0-2.5.1-5-.2-7.5s-1.3-5.6-2.9-6c.5,3.9.6,8.2,1,11.9s.7,3.3,2.1,1.5ZM630.4,450.7c4.8,1.8,18.8,3.6,22.9.5s-.2-6.8-1-8.1-2.9-1.2-4.2-1.7c-11.2-4.1-13.3-4-23.3-11.5-2.1-1.6-18.6-16.2-20.3-14.5,6.2,13.2,10.8,29.8,26,35.3ZM594,418.5v17.1c0,6.4,10,15.1,16.6,14.5l-16.6-31.7ZM920.9,419.7c-6.7,1.8-6.6,15.4-5.7,20.9s7.1,16.1,12.7,15.3c9.3-1.3,6.8-26.6,2.1-32.2-1.6-1.9-6.5-4.8-9-4.1ZM148.5,428.9c1.5-1.5-7.2-12-8.3-6.7s5.2,7.7,8.3,6.7ZM669.9,430c-5.7-2.4-17.3,6-8.3,7.3s24.9-4.5,24.9-15.6c-4.7,3.9-11.8,5.3-16.6,8.3ZM423.7,441.4c-1.2-1.3-2.8,1.6-3.3,2.4-3.4,5.1-5.4,11.3-9.7,16.3s-11.6,8.2-15.5,13.6-4.2,9.3-6.8,13.4c2.1,2,11.5-12.1,12.9-13.5,6.5-6.5,14.9-9.6,18.9-19.5.5-1.2,3.9-12.2,3.4-12.7ZM640.8,478.8c1.4-1.7-5.7-8.8-7.5-9.6l-38.1-21.1,11.4,14.6-5.7,1.6c3.4,2.9,8.4,3.2,11.9,5.8s-3.9,1.7-1,4.1,14.6,5.4,18.7,10.4c-3.5,1-7.2,0-10.7,1.8s-2.5,1.4-.7,2.4,9.7,2,13.2,3.4c7,2.9,13.1,10.2,22.1,10.6-8.4-8.7-16.1-22.6-28-26-.2-1.9,2.3-1,3.5-.9,3.6.3,7.9,1.1,11,3ZM365.6,451.8c-.7-.9-5.9-1.5-5.2,1.5s6.8.8,5.2-1.5ZM344.8,458c-7.5,1.1-9.3,9.6-11.4,15.6,4.2.7,12.3-14.7,11.4-15.6ZM778.9,491.2c-20.3-2.9-28.8,5.1-47.3,6.2-23.3,1.4-47.1-13.6-52.5-36.8-1.2-5.3-3.1,2.1-3,5,.3,6.1,8.7,23.1-3.7,11.1-.8-.2-.7,1-.5,1.5,4.4,13.8,16.2,19.7,25.9,29.1l-8.3-.5c1.6,5.9,7.4,8,13,7.3s4.7-2.4,7.5-2.9c5.2-1,8.9.8,13.1.7,7.6-.1,14.7-5.6,22.4-5.1-5.4,9-20.3,7.7-29.1,14.1l-8.3.4c3.6.1,6.1,3.5,9.8,3.1s13.1-3.2,15.7-4.1c4.3-1.4,9.2-4.4,13.5-6.3-.9,7.1-7.8,9-12,13.5,4.4.6,8.6-1.1,12.5-3.1,3-8,9.5-11.2,17.7-12.5-2,3.2-6.4,3.7-9.3,5.8s-4,4.4-8.4,6.7c-.4,1-1.7,3.5-.5,4.1,6.1-3.2,13.6-4,19.8-6.2,9.2-3.2,16.4-9.6,27.5-7.3l-15.2,6-5.5,3.3c17.1-.7,34,4.3,48.8,12.5-1.6-5.3-5.4-9.3-9.3-13,10.8-.3,12.4,11.9,16.2,19.1,7,13.1,19.1,20.7,27.9,32.3l1-4.1c11.5,11.4,11.3,27.2,14.3,41.8,1.6,7.5,3.6,0,3.9-3.9,1.2-14.3-1.8-28.3-5.2-42.1,6.7,2.6,8.8,9,11.8,14.7.4.7.8,3,1.7,1.4-9.2-20.7-17-41.8-33.2-58.2-21.2-21.3-33.5-25.1-62.3-31.7s-6.7-1.6-10.4-2.1ZM204.3,481.6c2.6-2.8,2-13.5-2.6-15.1-10.7-3.8-36.4,4.2-35.6,17.9.7,10.3,18.4,6.8,24.9,4.2s12.7-6.5,13.2-7ZM225.4,473.6c-1.1.6-3.4-1.1-4.2,2.6-4.6,23.3,45.3,22.7,40.3.2s-1.3-1.9-1.9-2.8c-7.7-12.4-22.2-7.6-32.6-1.9s-1.4,1.7-1.7,1.9ZM921.9,465.5c-8.3,1.9-11.2,24.3-10,31.4,1.4,9,13.6,11.1,20.6,7.3s6.3-20.9,5-27.7c-1.4-7.7-7.7-12.7-15.6-10.9ZM129.3,534.8c-4.8.5-10.2-.3-15.1,0,6.6,21.1-1.8,55-28,56.6,14.8,14.1,20,39.8,11.9,58.7-1.1,2.6-5.1,7-4.6,8.7s3.1,2,4.1,3.2c2.9,3.5,6,11.4,7,15.8s0,6.3.3,6.5,5.2-2.6,4.1,3.1l-3.1-1c.8,4.3-2.5,9.6-.5,13.5s6.1,3.5,8,5.2,3.9,7.1,6.5,7.3c6.4.6,10.5-10,13-14.6-7.5,1.6-18.2,5.3-21.8-4.2,3.2.2,5.9,2.5,9.3,1.6s13.5-8.8,14.5-12.6-8.7,1.4-9.8,1.5-8.5-1.6-8.9-2c-1.9-1.8.7-1.8,1.5-2.2,3.9-2,8-3,11.5-6.1s7.6-9.1,5.2-8.3c-4.2,3.3-9.9,4.9-14,.5,3.4-3.2,7.7-5.1,9.3-9.9-4,1.5-12.4,3.7-15.6,0s.6-1.7,1.5-2.1c5.4-2.2,12.1-2.9,15.1-8.8-4.8-1.2-11.6.8-14.5-4.7,6.6-2.3,13.6-6,18.7-10.9-8.9.4-14-3.1-19.7-9.3,2.6-.8,4.9,1.4,7.8,1.6,5.7.3,7.6-3.3,10.9-7.3-3.5,1.2-21.6-3.4-22.8-5.7s7.3-1.4,8.7-1.7c5.6-.9,12.7-3.2,17.2-6.6-4.5-1.8-9.9-2.5-13.7-5.7s-6.8-8-5.5-10.4c2,3.7,17,7.9,17,2.6s-11.7-12.8-10.3-14c8.5.9,15,5.3,23.9,2.1-1.4-2.2-4.5-2.1-6.7-4.2s-5.8-8.9-4.7-10.3c5.7,3.2,11.9,5.9,18.7,5.2-4-5.7-10.1-12.8-9.9-19.7,4,5.7,9.6,10.7,17.1,9.3-3-5.3-7-10.2-7.3-16.6,1.8,2.8,18.3,10.7,19.7,9.3-2.2-7.4-7.6-13.3-6.2-21.8,4.8,5.4,9.7,9.8,16.6,12.5,1.4-1.9-2.6-15.5,3.1-17.7-1.4,9.6,4.2,17.3,11.4,22.8-2.6-10.9-5.7-19.8,1.1-30.1l3.4,13.7,2.8,7c1.5,1.2,9-18.7,14.5-17.6-2.8,9.2-3,20.2,4.3,27.4s3.9,2.8,2,.1v-15.6c0-6.5,13-17.3,19.2-18.2s2.2,1.4,1.5,2.1-3.1.8-4.7,2.1-7.7,7.1-8.4,9.3-2.2,11.2-2.3,12.2c0,3.3,2.3,6.8,5.9,5.5-1.1-9.3,6-18.4,14.8-21.1,21.5-6.7,41,3.1,62.8-5.7,15.3-6.2,27.5-17.6,33.3-33.2s4.4-12,.3-8.6-4.3,8.3-5.8,10.3c-4.3,5.6-10.4,11.1-17.6,12.6l8.6-10.1,3.8-9.7c-6.6,5.5-11.6,11.5-20,14.3s-25.5,4.6-34.9,3.3-5.5-2.5-7.6-2.8c-4.1-.7-13.6,7.5-19,9.7-7.3,3-19.6,6.5-26.7,2.8s-13.9-8.9-19.7-13.6c-14.8,9.6-29.9,12.7-47.5,11.5-1.7.6-6.1,13.3-7.7,16.1-6.2,10.9-15.5,15.7-27.7,16.9ZM411.3,477.7c-6.5-.7-13.3,3.5-13.5,10.4,4.8-2.9,10.3-5.5,13.5-10.4ZM154.5,490.4c-2.5-2.5-13.2-2.7-16.8-2.2-5.4.8-20.8,9.4-23.3,14.1s-1,3.1-4.9,7.6c-12.2,14.2,14.8,18,26.9,10.3s15.4-14.4,17.1-17.1,3.8-9.7,1-12.6ZM404,491.2c-2.1-1.9-13.8,8-16.6,8.8l-11.4,3.6c10.9,3,24.1-1.2,28-12.4ZM638.7,555.6h19.2c1.7,0,3.9,1.7,1.5,3.6-3.4,2.6-11.1.8-14.5,4.2,0,1.6,8.5,5.7,9.8,5.7h21.3c.5,3-.6,1.7-2.4,2.2-2.6.7-5.4.6-7.9,1.5s-4.9,2.5-5.3,3.6c8.7,3.5,16.8,4,26,3.6-8.6,5.9-20.5,5.7-30.1,2.6-1.2,1.1,3.3,5,4.2,5.6,7,4.9,17.9,5.9,26.2,4.5s13.2-7.8,15.3-3.4l-16.1,9.9-4.7,6.2c3.7-.8,7.5,1.1,10.9,1.1,9.5,0,23.4-6.7,31.7,2-4.9-.5-10.9,1.8-14.5,5.2,7.4,3.9,14.7,4,22.3,7.3,9.3,3.9,22.9,11,31.7,16.1,6.2,3.6,12.1,6.9,16.1,13,.8-2.9-1-5.6-.5-8.8.7-5.1,6,8.6,6.4,9.2,5.5,9,14.8,16.6,19.1,25.6,4.6,9.4,8,21.8,11.9,31.8,1.2,3,3.6,5.5,4.5,9,2.7,10.9-1.8,19.3-1.4,29.4.2,6.1,4,14.7,3.9,19.5-.2,4.9-2.2,21.9-3.2,26.7-3.3,16.1-18.6,21.9-25.4,34.9-4.3,8.2-5.7,17.5-9.5,25.8l4.7-2.6.3,2.4-13.3,24.6c7.2-3.1,12.6-13.3,15.4-20.4,4.1-10.5,3-24.1,12.6-30.5l-3.1,16.1,1,8.3c5.4-12,9.6-24.1,16.4-35.5,5.3-8.9,14.5-13.1,16.9-23.6,3.2-13.7-2.5-22.1-2.1-33.3.2-5.1,4.1-10.7,5-15.8,1.8-9.7,2.4-25.2-2.2-34-1.6-3-13.5-15.8-12.3-17.3,6.9,5.7,15.8,12.1,19.5,20.5,3.1,7.1,6.9,25.4,6.4,32.9-.3,4.3-4.4,8.7-5.5,13.3-2.1,9.2,2,19.7,3.4,28.9,1.8-.3,1.8-2.1,2.3-3.4,4.5-10.7-1.2-26.4.8-38.2l5.4,12.7,2.8,2.9c-.7-7.2,1.8-14.1,1.1-21.3-.6-6-3.4-12.9-4.1-19.7s.4-9-.1-13.4c-3.5-31.6-25.3-69.6-49.8-89.3-12.9-10.3-33.1-25-48.4-30.5-5.3-1.9-15.7-2.5-19.3-4.6s-2-3.3-4.8-4.5c-7.6-3.1-18.1,0-26-3.6l4.1-3.1c-3.4-.3-6.7-1.5-10-2s-4,.6-5.7.4c-5-.6-13.6-5.8-19.6-5.7,0-1.4,5.1-2,5.9-2,2.3,0,6.9,2.2,7.6,0-14.7-8-22.7-24.2-36.3-33.8h8.3c-2.6-6.4-6.3-11-11.4-15.6s-6-3.6-8.4-6.2-3.3-6.5-6.3-8.3-15.6-4.8-18.6,0c6.3,2.1,11.7,4.6,16.6,9.3-4.8,1.8-9.7-1.1-14.5-.5,3.5,7.1,12.3,6.1,17.7,10.9-1.4,1.1-18.9-.9-15.6,3.6s16,2,18.7,4.2l-5.2,4.1c6.5,1,22.9,7.7,24.9,14.1s.3,1.7-.5,1.5c-6.6-5.8-16-6.7-24.4-6.2-.4,2.3,0,1.7,1.3,2.3,6.2,3.3,13.8,3.3,17.4,11.7-4.9.7-9.4-1.8-14.3.2s-1.6.3-1.3,2.3ZM892.1,539c8.9,2.5,17.3-11.4,14-18.7-.4-.9-5.5-5.8-6.4-6-10.4-3.1-25.3,14.6-13.3,20.6,1.4-.3,4.9-8.3,6.9-9.8,4-3,10.2-3,7.5,3.3l-8.6,10.7ZM283.5,527.6c-1.2-2.4-6.4-2.9-8.8-3.1-9.3-.8-23.4-.1-22.3,12.4,4.9-2.1,8.5-5.8,13.7-7.6,6.4-2.2,10.9-1.1,17.4-1.8ZM75.1,580.2c11,9.7,24.5-10.9,28.3-19.4s3.7-16,2.5-22.3-8.5-8.5-13.5-6.2-11.4,10.2-12.7,12.2c-5.1,7.9-12.9,28.4-4.7,35.7ZM825.6,549.4c-2.1-7.3-9.2-11.8-16.6-12.4l16.6,12.4ZM716.6,546.3c-1.5-2.6-5.4-4.1-8.3-4.1,1.5,2.6,5.4,4.1,8.3,4.1ZM719.7,546.3c-1.5-.7-2.8.7-2.1,1,1.5.7,2.8-.7,2.1-1ZM772.7,550.4c-.4,5.7,10.6,12.4,12.3,5.5,1.3-5.2-8.9-6.3-12.3-5.5ZM806.9,583.7c1.2-1.2-4-10.3-5.3-11.8-5.4-6.2-13-6.1-7.6,2.4s11.4,10.9,12.9,9.4ZM860.9,608.6c-3.1-7.1-1.1-14.6-3.7-21.7-1.9-5.1-10-14.3-14.1-18.1s-1.5-2.2-4-1.7c8.7,13,12.8,28.9,21.8,41.5ZM819.4,575.3c.8-2-4.8-8.6-6.2-7.3,1.2,2.9,3.4,5.6,6.2,7.3ZM196.3,570.2c-6.2.5-14.6,2.7-16.6,9.3,7.3,2.7,12.5-4.4,16.6-9.3ZM344.4,585c-5.4.3-16.7,8.7-15,14.5s27.8,7,25.7-7-6.1-7.8-10.7-7.5ZM573.3,689.6c-1.6-3.1,0-5-4.8-8.1-7.3-4.6-14.1-.4-22.2-9s-4.9-13.6-8.9-21.3-16.3-9.4-18-22.5,3.5-29-9.2-31.4-9.9,5.6-12.7,10.7-3,3.2-4.7-.6c-3.8-8.5,3-23.9-12.5-14.6s-9.7,41.2,7.2,39.5c3-.3,4-3,6.8-3.1,2.8,8-1,15.4-9.8,15.7s-12.8-4.4-19.2-6.3c22.6,24.2,26.8,56.7,1.1,80.5-21.2,19.6-38.1,37.8-70,34.7-12.6-1.3-31.1-9.6-34.9-22.7s-.8-6.7-1-9.3c30.1,23.6,68.2,6.6,79.4-28.1,18-55.7-26.9-79.5-75.8-74.7-58.3,5.7-97.3,39.4-110.7,95.9-5.9,24.7,1.8,49.3,11.1,72.3s42.5,61,69.5,69.6c11.3,3.6,18.5.9,28.8,3.4s20.9,11.9,33.7,13.1,19.9-3.8,31-3c10.9.8,21.5,4.5,33,2.8,8.5-1.3,15.1-10,23.6-12.7s15.1-.3,21.8-2.1,11.7-8.9,16.9-12.2c9.2-5.7,31.6-9.1,37-18.1,2.1-3.6,1.3-8.9,4.2-12.4,5.8-6.8,22.6-12.4,23.8-20.8s-1.9-8.6.3-14.3,13.5-13.2,13.3-20.9c-.1-5.4-3.8-10.9-4.9-15.9-2.7-11.7,3.4-19.2-5.5-30.8-7-9.1-11.6-11.9-17.6-23.4ZM370.5,591.2c-7.8,1.8-9,12.4,2.1,14,20.7,3.1,15.2-18-2.1-14ZM57.1,593c-2.7-.6-1.8.7-2.7,2-4.4,6.2-7.6,17.7-5.6,25,6.3-6.9,8.9-17.7,8.3-27ZM314.5,594.2c-9.1.3-26.3,10.5-27.8,20.1s-.6,6.2.9,7.3c2.7,1.9,12.7.5,15.7-2.1s11.2-12.5,12.9-15.2,5.1-10.3-1.7-10.1ZM168.2,595.1c-6.6,0-8.1,4.4-7.3,10.4,5.1-.2,7.5-6,7.3-10.4ZM409.2,606.5c2.5-2.5-5.1-12.6-8.9-9.5-5.9,5,6.2,12.1,8.9,9.5ZM822.5,598.2c-.7,1.8.8,7.2,2.6,7.2,2.9,0,.8-8.4-2.6-7.2ZM73.2,600.7c-13.4.5-16.9,53.6,4.2,51.6,3.8-.4,8.6-6.2,10.1-9.8,4.3-10.2,1.7-30.5-7-38.1s-5.4-3.8-7.3-3.8ZM848.5,600.3c-2.4-2.4-2.4,4-1.9,5.5s3.3,2.9,5,2.8c-.3-1.3-2.8-8-3.1-8.3ZM883.8,603.4c-1.4-.3-2.5.4-2.9,1.7-1.6,5.2-1.4,14-3.3,19.6,4.8,16-14.4,26.4-11.4,42l5.2-1.1-2.1-2.1,10.4-6.3c-11.5-8.7,5.1-7.3,6.2-11s-1.4-5.2-.9-8.1,4.6-7,3.1-8.9-2.4,4.3-4.1,2.1,0-4.5.2-5.5,6.6-10.7.8-8l-1.1-14.5ZM436.2,612.7c.8-.7-3.6-7.3-6.7-7.4-8.4,0,1.2,10,6.7,7.4ZM265.9,641.8c.4-.7.7-1.3,1-2.1,5.7-4.7,13.2-10.5,10.2-19-3.5-10.1-20.6,8.9-22.9,14.2-6.3,14.5,4.4,20.6,11.6,6.9ZM852.6,621.1c-6-4.2-6.1,12.4-1.5,13.5s3.5-12.1,1.5-13.5ZM538,623.1c-5.7-.9-5.4,1.9-1.5,5.2l1.5-5.2ZM744.6,636.6c1.9-1.9-11.7-12.1-14.5-11.4-.9.8,12.9,11,14.5,11.4ZM702.4,662.2c10,9.2,25,7.6,22-9s-12.8-21.9-24.7-19.4c-4.4.9-6.9,3.4-5.9,8.1,3,1.2,6-1.7,8-1.8,4.3-.4,16.3,14.2,14.9,19.5-7.5,1.7-11.7-5.4-18.7-5.2-.9.8,3.6,7.1,4.5,7.9ZM772.7,654.3c1.6-1.9-6.5-9.8-9.3-9.3-1.5,1.5,8.7,10.1,9.3,9.3ZM573,657.6c-.2-.4-2-.7-2.7-1.9-1.2-1.9-2.3-6.3-4.3-7.2s-5.7,1.2-8.3-.4c-1.3,1.2,8.9,18.2,14.6,14.1s1.4-3.4.7-4.6ZM940.5,708.7c-1.3-1.2-2.4-1.6-3.6-3.2-5.1-7.3-12-22.2-12.6-31s3-14.6-4.7-20.2c-1.5.9-1.2,2.2-1.6,3.5-1.6,5.6,0,25.8,1.6,31.8s13.9,20.6,18,27.7c6.7,11.4,11.2,25.3,13.4,38.4.2,1.3-1,3.1-.7,4.5,2.7.5,1.9-.4,2.4-2.2,1.9-6.9-1.6-18.5-2.4-25.8l7.2,8.3c1.8-11.9-6.9-20.9-10.9-31.2-2.2-5.8-3.4-16.6-6.3-20.7s-5.9-5.7-5.7-1.6c.3,6.2,6.8,15.9,7.3,22.8-1.2,1.7-1-.7-1.4-1.1ZM241.7,656.7c-.9-.8-2-1.1-3.1-1-12.4,1-16.6,33.5-9.8,36.4,9.3,4,15.1-1.7,17.5-10.2s0-21.3-4.5-25.2ZM743.3,660.8c-12.3,2.5-6.5,20.7-1,27.5,13.2,16.5,35.7,3.7,24.4-14s-8.8-10.7-11.8-12.1-7.4-2.3-11.6-1.4ZM94.5,697.9c4.2-10.7-.1-29.2-11.4-33.2-22-7.9-13.8,37.2-.5,39.4,6.5,1,9.6-.3,11.9-6.2ZM794.5,676.1c1.2-1.1-4.7-8.8-6.2-7.3s3.7,9.6,6.2,7.3ZM591.6,679.3c-6.7,2.1,2.2,19.8,9.7,16,6.7-3.3-4-17.8-9.7-16ZM912.9,703.1c1.1-2.1-5-15-7.3-12.5.3,4.6,3.6,9.7,7.3,12.5ZM630.4,701c.4-.4-4.7-8.1-7.3-7.3-1.2,1.1,6,8.4,7.3,7.3ZM785.9,699.2c-12.4,3.3-8.5,29-3.3,37.1,10.9,16.8,25.2,8.2,23-9.5-.5-3.9-6.1-18.2-8-22.1-2.3-4.6-6.5-6.8-11.7-5.4ZM637.6,707.2c-2.9-2.9-2,6.5-1.8,7.5l6,14.3c-.3-3.8-2.1-19.7-4.2-21.8ZM98.7,730.1c2.2,3.2,2.8,6.4,7.8,7.2,17,2.8,8.7-21-1.6-25.9s-12.1,4.7-10.1,12.7,2.6,4,3.9,6ZM715,711.4c-3.3,0-1.5,12.9,4.1,11.4s-3-11.4-4.1-11.4ZM228.4,712.6c-1-.7-5.1.1-6.4.9-9.3,5.4-6.4,38.9,3.4,43.1s12.1-7.6,11.4-15.6-7.2-27.5-8.5-28.4ZM760.2,724.9c.5-5.8-2.8-12.6-9.3-12.4l3.7,7.2,5.6,5.3ZM623,713.6c-5.8-3.7-10.7,6-11.3,10.7-1,8.4.1,18.5,7.2,24,3.7,2.9,7.9-1.3,9.8-4.8s2-13.6.3-18.8-5.6-10.7-6.1-11ZM740.5,743.6c-.1-.1-2.2-.4-2.1.5-.4,3.4,3.1,10.1,6.2,11.9.8-2.8-2.3-10.9-4.2-12.5ZM636.6,772.7c1.4-1.8,1.7-26-.5-26-3.5,7.7-5.4,16.4-1.7,24.5s.6,3.5,2.2,1.5ZM707.2,803.8c12.7,1.8,24.9-12.9,22.4-25-.7-3.5-5.8-19.9-7.3-22.8-3.9-7.6-8.8-5.9-10.7,1.8l-4.4,46ZM951.3,777.9c.5-.4,5.5-10.8,6-12.2,1.3-4.3,1.6-8.2,1.3-12.7-1.6.4-2.7,4.2-3.2,5.7-1.9,6.1-1.8,13.6-6.2,18.7-.1.9,1.9.6,2.1.5ZM778.5,802.1c3.2,6.4,3.5,10,11.1,5.6s17.3-22.4,16.3-33.5c-1.7-20.4-17.2-17.4-24.1-2.3s-6.1,24.2-5,29.1c.2.8,1.5.8,1.6,1.1ZM616.9,771.6c-11.6,4.9-17.3,23.4-13.2,34.5,4.7,13,15.7,1.6,19.3-6.1,4.5-9.5,4-13.6,1.2-23.2s-2.6-6.8-3.1-10.4c-2.1,1-3.8,2.9-4.1,5.2ZM228.7,774c-8.5,7.9,2.1,43.3,19.2,36.3s3.7-16.2.4-22.8-11.8-20.9-19.6-13.6ZM226.4,809c-.2-.2-2.1-.4-2.1.5,0,2.8,6.2,15.6,9.4,13-2.2-2.2-5.9-12.3-7.3-13.5ZM670.9,822.5c.2-1.7,1.5-4,.5-5.2-7.5,7.4-6.3,19.3-7.8,29.1,2.3.4,2.9-1.5,3.5-3.3,2.3-7.1-2.2-15.5,3.8-20.6-.4,3.4-.4,7-1,10.4,2.2.6,3.7-3.1,4.3-4.5,1.4-3,2-6.3,3-9.5-2.4-2-3.5,2.5-4.5,3.4s-1.6.1-1.8.3ZM827.7,827.7c1.8,1.8,10.8-5.6,10.4-7.8-.7-3.5-7.8,2.2-8.9,3.6s-2.5,3.2-1.5,4.2ZM192.1,842.2c-.8-9.9-11.1-17.5-19.7-20.8-2,2,13.2,17.8,15.5,19.3s2.1,2.1,4.2,1.5ZM589.6,821.7c-6.3,1.3-18,12.5-21.3,18.1-15,25.7,15.3,25.7,27.6,4.8,4.9-8.4,8.7-26.1-6.3-22.9ZM257.3,822.7c-6.6,1.9-3.6,15.2-1.8,20.1,3.4,9.4,13.8,17.9,24.2,15.8,12.2-2.5,6.9-20.5.7-27.3-4.1-4.5-17.1-10.4-23.1-8.6ZM765.1,824.8c-6.2,1.3-21.6,15-23.8,20.8-1.3,3.5-1.4,12.9,2.3,14.8,9,4.5,27.6-9.6,31.2-17.6,4.3-9.5,3.5-20.7-9.7-18ZM617.9,825.6c-7,2-8.7,10.3-9.3,16.6,5-4,9.5-9.9,9.3-16.6ZM190.1,852.6c-1.6,1.5,9.9,18.4,13,19.7.4-3.3-8.9-23.6-13-19.7ZM541.8,857c-8.5,1.4-25.7,10.7-26.8,20-1.4,12.8,8.9,15.3,19.3,12s29.6-35.5,7.5-32ZM300.5,883.4c4.5,4.3,15.8,8,21.9,7.6,7.5-.4,19.1-6.5,13-15.1-6.7-9.4-28.2-18.7-38.8-12-5,3.1.2,16,3.8,19.5ZM730.1,863c-3-2.2-11.6,7.2-10.4,8.3,2.2.4,11.7-7.3,10.4-8.3ZM743.6,880.7c12-.6,30-4.2,33.2-17.6-9.4,8.9-24.1,8.6-33.2,17.6ZM232.6,884.8c-2.6-10.7-9.8-16.3-19.7-19.7-1.7,1.7,13.9,22,19.7,19.7ZM597.2,902.5c7.4.3,10.7-7.7,15.6-10.9s8.4-2.9,12.3-6.4,7.3-9.4,8.4-13.9c-10.3,13.3-31.5,13-36.3,31.2ZM116.3,884.8c-.5-4.1-3-9.6-6.2-12.5.5,4.1,3,9.6,6.2,12.5ZM282.5,880.7c1.5-1.4-6.8-8.8-9.3-7.3.1,5,5.2,6.6,9.3,7.3ZM572.2,876.5c-1.8-2.3-9.8.9-10.4,4.1,1.8,1.2,12.7-1.1,10.4-4.1ZM485.8,881c-8.6,1-27.6,9.2-25.5,19.7,2,10.2,13.8,9.9,21.9,8.8,19.6-2.7,33.1-32,3.7-28.5ZM360.1,883c-4.8,1-13.9,7.8-12.8,13.3,3.5,16.7,45.7,18.2,46.3,2.6.5-12.8-23.8-17.8-33.6-15.8ZM752.9,888c-8.7-1.1-16.1,1.8-22.9,7l-4.1,8.6,27-15.6ZM410.6,913.6c7.7,7.5,32.5,3.7,35.5-7.9,4.4-17-9.6-18.1-22.8-16.5-13.1,1.5-23.6,13.9-12.7,24.5ZM245.1,906.6c1.2-1.2-9.2-11.6-10.4-10.4-1.2,3.3,9.5,11.3,10.4,10.4ZM513,908.7c.6.5,14.5-4.7,14.5-5.7,0-4.6-14.9,1-14.5,5.7ZM340.6,908.7c2.9-2.5-14.1-11.1-8.4-2.5s5.1,2.7,8.4,2.5ZM574.3,907.7c2.8-3.6-11.8-5.6-17,2.2-.8,1.3-1.9,2.4-1.6,4.1,2.7-1,17.9-5.2,18.7-6.2ZM725.4,904.6v1c.7-.3.7-.7,0-1ZM294.9,927.4c0-3.6-7.4-5.8-10.2-6-5.2-.4-10.6,2.7-16.1,1.6-4.7-.9-9.5-6-13.7-8.1.8,2.4,4.2,5.8,6.2,7.3s7.7,5.2,9.3,5.2h24.4ZM412.3,926.4l-13.8-7.5c-1.2-1.4-3.9-.2-3.8.7.2,2.6,14.6,6.9,17.6,6.7ZM578.5,920.2c-.9-.8-15.2,4-17.2,5.1s-3.5.5-1.5,2.2,5.9,1,6.7,1c3.4-.1,11.8-4,12-8.2ZM465.3,922.2c-2.8-.2-5.4,0-8.1.7s-2.7-.3-2.2,2.4c3-.3,8.5-.5,10.4-3.1ZM426.8,946.1c7.5-.1,13.5,2.2,21-.3,18.9-6.3,18-13,42.8-12.2,1.5,0,7.6,2.5,6.8-1.5s-22.4-4.8-26.2-4.4c-12.9,1.4-16.6,8.3-27.1,12.4-5,1.9-9.9,2.3-14.9,3.8s-2.9-.8-2.4,2.2ZM515.1,932.6c1.2-4.6-8.5-2.8-9.3-2.1-3.1,2.9,8.7,2,9.3,2.1ZM334.4,941.9c-2.4-7.1-13.1-3.1-18.7-3.1,4.7,6,12.2,3.7,18.7,3.1ZM533.8,943c-3.8,0-7.9.5-11.6,1.4-1.6.4-5.5,0-5,2.2l4.6,1.6,12-5.2ZM488.1,950.3c3.5-2.9-14-7.1-16.6-1.5s5.5.6,6.6.6c3,.1,6.6,1.8,10,.9ZM360.4,957.5c-1.7-5.6-8.3-9.4-13.8-9.3s-9.7,1.6-10,2c-1.6,1.7.6,1.8,1.4,2.3,7.8,5.4,13.1,5.6,22.5,4.9ZM426.8,963.8c-5.1-5.5-11.9-9.5-19.7-8.3,2.7,7.3,12.7,9,19.7,8.3ZM395.7,961.7c-1.7-7.7-11.8-4.6-17.6-5.2-.6,4.9,16.8,6,17.6,5.2Z"/>
    <path d="M661.5,330.3c.3-.5.8-1.5,1-2.1-.3.4-.3,1.4-1,2.1Z"/>
    <path d="M662.6,328.2c.2-.4.8-.7,1-1-.2.4-.7.7-1,1Z"/>
    <path d="M664.7,326.1c-.1.6-.9.8-1,1,.3-.5.1-1.6,1-2.1,0,.3,0,.7,0,1Z"/>
    <path d="M627.3,297c-1,3.7-1.6,1.5-2.1,2.1.6-.5,1.5-1.5,2.1-2.1Z"/>
    <path d="M265.9,641.8c-1,.7-6.5,2.8-7.3,2.1-2.6-4.6,8.5-16.2,11.4-13.5s-2.5,8-3.1,9.3c-.7.6-.9,2-1,2.1Z"/>
    <path d="M607.5,551.5c.3.4.8.7,1,1,.4,1,.6,2.3-1.4,1.9-4.1-.8-8.2-3.8-11.6-6.1-1.5-2,1.9-.7,2.7-.6,2.4.5,7.4,2.3,9.3,3.7Z"/>
    <path d="M951.3,624.2c-1.4-1.4,2.4-16.8,2.1-20.2s-2.6-5.4-3.1-8.4.3-7.7,0-11.4-4.1-12.3-.5-13c19.9,9.4,26.2,45.9,1.5,53Z"/>
    <path d="M809,391.5c11.2,3.3,18.6,12.2,16.5,24.3-.6,3.3-3.2,7.5-6.8,4.8s-11-27.8-9.8-29.2Z"/>
    <path d="M899.4,766.4c2.4,8.1,1.6,24.2-9.3,24.9-.1-8.2.1-21.6,9.3-24.9Z"/>
    <path d="M810.1,921.2c.3,5.7.9,10.3-6,11.2-11.6,1.5,2.6-14.5,6-11.2Z"/>
    <path d="M849.5,424.8c.9,7.4-.7,15.1-9.3,15.6,1.3-5.9,2.6-13.8,9.3-15.6Z"/>
    <path d="M803.3,425.8c3.5-1,4.8,3.4,2.1,4.1s-4.8-3.4-2.1-4.1Z"/>
    <path d="M269,974.2c1.8,1.7-4.1,3.8-4.9,3.9-12.2,2.1-29.4-1.4-39.2-9.1-13.5-10.8-14.7-26.5-16.1-42.6,10,7,16.1,17.8,23.9,26.5,7.8,8.7,19.4,15.1,30.1,19.7s6,1.4,6.2,1.6Z"/>
    <path d="M32.2,708.3c2.5-2.6,12,11.1,13.3,13.2,3.3,5.1,5.8,12.5,9.1,16.9s11.1,7.6,6.4,9.7c-4.1,1.8-11.6-.5-15.3-2.9s-13.5-17.9-13.5-21.8v-15.1Z"/>
    <path d="M16.6,563.9c0-5.1,1.8-13.3,4.7-17.6s12.1-12.7,9.8-2.1l-11.4,24.4h-2.1c-.6-1.6-1-3.1-1-4.7Z"/>
    <path d="M633.5,944c-.6,5.5-2.5,11.1-5.4,15.9s-3.6,7.2-7.1,5.4c-8.2-4.3,10.1-23.8,12.5-21.3Z"/>
    <path d="M62.3,812.1c-6.6-.1-7.3-6.1-5.2-11.4,5.5.8,5.5,7.2,5.2,11.4Z"/>
    <path d="M54.2,790.2c-.6-1,0-3.6-.2-5,12,.2,3.3,10.1.2,5Z"/>
    <path d="M596.7,973.1c4.7-1,1,7.9-2.1,7.3s0-6.8,2.1-7.3Z"/>
    <path d="M163,882.8c-2.1,1.9-8-2.6-6.2-6.2,2.9-1.6,7.3,5.2,6.2,6.2Z"/>
    <path d="M116.3,368.7c-1.2,4-5,6.2-7.1,10s-3.5,9.3-3.4,14.4,3.3,10-2,12.4c-10.8,4.9-7.7-20-5.7-25.5s11.5-12.5,18.2-11.4Z"/>
    <path d="M226.4,380.1c-.7,5.8-14.3,9.3-7.9,2,2.2-2.5,4.7-2.1,7.9-2Z"/>
    <path d="M92.4,421.6c-3.7,2.6-7-5.5-6.2-6.2,2.3-2.1,7.4,3,6.2,6.2Z"/>
    <path d="M224.2,412.4c2.7,4.3-9.7,5.3-10.3,2.5.3-4.8,8.6-5.1,10.3-2.5Z"/>
    <path d="M572.2,129.8l-10.5-8.7c-14.3-10.8-44.9-18.7-62.7-17.2-18,1.5-31,13.7-46.9,20.6s-4.8,2.7-6.6,1.7c6.2-4.7,11.2-11.1,17.2-16.1,28.4-23.8,62.4-20.3,92.2-.9,9.1,5.9,12.7,10.8,17.3,20.6Z"/>
    <path d="M396.7,198.4c4.7,9.7,15,18.3,20.3,29,3.7,7.5,4.9,17.9,8.9,24.3s17.6,11.4,17,21.5c-4.9-9.2-20.2-8-25.9-16.7s-5.7-19.6-9-27.3-17.7-25.4-18.5-31.8-.3-9.8,0-12.9,1.5-5.4,3-5.8c-.4,6.5,1.3,13.9,4.2,19.7Z"/>
    <path d="M550.4,219.1c4.4,4.5-10.1-.9-11.3-1.7-5.6-3.5-6.7-8.5-10-12.8s-16.2-7.6-22.3-10.9c-9.7-5.3-17.3-12.7-29-14.6l-11.4-5.7c10.2-.3,22.6,1.6,31.9,6s11.5,8.5,17.3,11.8c4.3,2.5,15.9,6.5,18.3,8.7,4.3,4,4.1,11.8,11.1,16.9s5.3,2.1,5.5,2.3Z"/>
    <path d="M531.7,150.6c-15.9-6.5-32.3,0-48.8-2.6,3.2-3.4,7.9-5.3,12.4-6.3,13-2.9,28.2-3.3,36.4,8.9Z"/>
    <path d="M535.9,66.5l-8.7-.2c-5.9-.5-12-2.6-17.8-3-9-.7-17.7,1.6-26.5,1.6,16.2-14.9,35.7-5.8,53,1.6Z"/>
    <path d="M394.6,68.6c-6.4,8.5-17.7,14.1-25,21.2s-7.2,10.5-11.2,14.8-1.1,2.9-3.3,2.4c3.2-19.8,22.3-31.6,39.5-38.4Z"/>
    <path d="M407.1,139.2l15.7-32.5c2.9-3.4,6-7.2,10.2-9,.6.6-5.2,8.3-6.1,10-5.7,11.2-8.5,23.7-19.9,31.5Z"/>
    <path d="M507.8,224.3c-.7-1.4-3.7-10.4,0-7.3s.8,2.3,2,3.7c3.6,3.7,6.6,5.7,10.4,8.8,6,4.7,12.2,9,18.7,13-.7,1.4-2.8,0-3.9-.2-9.9-2.5-22.3-8.6-27.2-17.9Z"/>
    <path d="M672.6,97c7.7,8,14,25.2,15.9,36l-20.7-37.9.5-1.5c1,1.6,3.2,2.3,4.3,3.5Z"/>
    <path d="M543.1,177.6c.3,1.8-2.3,1-3.4.8-7.9-1.7-26.6-8.3-34-11.7s-2.6.2-2.1-2.5c14-.3,26.5,9.2,39.5,13.5Z"/>
    <path d="M639.8,202.5v-15s3.1-14,3.1-14c3.1,9.8,5.7,21.4-3.1,29.1Z"/>
    <path d="M490.2,129.8c7.6-6.3,20.5-4.6,29.3-1.8s3.1.3,2.9,1.8h-32.2Z"/>
    <path d="M596.8,159.2c.9,1.1,1.6,2.4,1.4,3.8-2.3,2.2-12.5-8.2-14.6-9.8s-7.4-3.8-7.2-4.2c1.2-2.9,6.8,0,8.4,1s11.2,8.2,12.1,9.2Z"/>
    <path d="M506.8,117.4c.2,1.5-1.8,1.4-2.9,1.8-7.9,2.5-17,4.6-25.1,6.5,1.1-1.5,4.7-3.9,6.3-4.6,6.7-3,14.4-4,21.7-3.7Z"/>
    <path d="M449.7,150.6c-4,6.2-10.9,9.2-17.6,11.4l8.4-7.7,9.3-3.7Z"/>
    <path d="M581.6,173.4c-6.9-1.5-11.1-5.4-13.5-12,2.8-.6,15,10.5,13.5,12Z"/>
    <path d="M524.5,51.9c-5.4-.5-12-1.8-17.2-2s-9.4,3.2-8.7-1.1c8.5.5,19.1-3.3,26,3.1Z"/>
    <path d="M577.1,77.2c1.3,1.2,2.9,5,2.9,6.9l-17.1-13.5c3.5.5,11.8,4.3,14.2,6.5Z"/>
    <path d="M619.7,135.3c.9,1.1,1.6,2.4,1.4,3.8-5.3-1.6-10.8-6.7-11.4-12.5,2.5,2.8,7.9,6.2,10,8.6Z"/>
    <path d="M384.3,155.8c-2.1,3.8-3.6,8.7-7.3,11.4-.5-4.5,2-11.3,7.3-11.4Z"/>
    <path d="M333.4,140.2c-4.8,3.8-1-12.7-1-13.5l1.9,9.9c-.2.8-.7,3.5-.9,3.6Z"/>
    <path d="M440.4,86.2c-1.5-1.5,8.7-10.1,9.3-9.3-1,4.9-5,7.7-9.3,9.3Z"/>
    <path d="M425.8,201.5c-1.7-2.5-4-4.8-5.4-7.6s-1.8-3,.2-2.8c1.8,4.4,8.1,5.9,8.3,11.4-.8-.2-1.9-.8-3.1-1Z"/>
    <path d="M451.8,170.3c-.3,2.1-6,5.2-7.3,4.1-2-1.8,5.8-4.9,7.3-4.1Z"/>
    <path d="M402.9,159.9h-5.2c0-4.3,5.3-4.3,5.2,0Z"/>
    <path d="M552.5,90.4c-26.7-13.9-56.7-13.9-85.1-5.7,23.8-19.2,59.7-17,82.8,2.4s2.9,1.2,2.4,3.3Z"/>
    <path d="M553.5,749.8c0-8,3.4-10.8,6.2-16.6,6.4,1.9,1,26.3-1,27.6-3.6,2.3-5.2-8.8-5.2-10.9Z"/>
    <path d="M551.5,782c1.1,8.3-4.5,14.3-12.5,15.6-1.6-1.7,7.8-17.1,12.5-15.6Z"/>
    <path d="M628.3,619c-8,5.4-14.3,9.2-16.2,19.7l-1.5,12.5c-.9-6.3-4.7-14.2-2.3-20.5s4.2-4.5,5.4-6.3,1.9-6.1,2.2-6.4c1.1-.9,10.2.1,12.3.9Z"/>
    <path d="M567,491.2c-7-.1-16,2.8-21.7,6.8-1.4,1-8.2,9.1-9.4,7.7,0-13.8,16.2-17.9,27.6-16.6s3.2.2,3.6,2.1Z"/>
    <path d="M664.7,664.7c-2,3.1-7.4-1-9.9-1-5.7,0-9.6,9.4-8.8,14.4-7.5-7.1-.3-18.8,9.8-17.6,3.3.4,5.7,3.4,8.9,4.1Z"/>
    <path d="M671.9,684.4c-4.1-.4-7.5.8-9.8,4.2l-3.7,15.5c-5-10.1.9-30,13.5-19.7Z"/>
    <path d="M630.4,840.2c1.5-8.7,6.4-18.8,14.5-22.8l-6.8,15.5-7.7,7.3Z"/>
    <path d="M640.8,638.7c3,2.8-7.5,1.6-7.4,3.5l-7.2,12c-1.4-5.8-.9-15.7,6.8-16.6s7.4.7,7.7,1Z"/>
    <path d="M600.3,583.7l-9.4,5.7-7.2,8.8c-1.9-13.1,5.2-15.1,16.6-14.5Z"/>
    <path d="M654.3,782c-5.7-4.6-1.8-13.6-1-19.7,1.8.5,2.1,5.2,2.1,6.7.1,4.6-.8,8.5-1.1,13Z"/>
    <path d="M675,714.5c-4-2.1-3.4-14.7-1-16.6,5.6-4.4,0,16.2,1,16.6Z"/>
    <path d="M641.8,651.2l-6.8,9.3-1.5,9.4c-2.3-7.4-1.5-18.7,8.3-18.7Z"/>
    <path d="M661.6,740.5c0-2.9-.1-5.8.1-8.7s.6-6.4,1.9-6.9c.9,4.9,5.1,13.9-2.1,15.6Z"/>
    <path d="M648,794c0-.4,1-3,2.1-2.6,1.1,5.6,1.5,9.2-.3,14.7s-.2,3.1-1.8,2.9c.5-4.7-.6-10.5,0-15.1Z"/>
    <path d="M548.3,511c.4.3-4.9,7.5-5.6,8.4s-1.2,3.9-2.7,2c-2.4-3.1,3.8-11.5,8.3-10.4Z"/>
    <path d="M652.2,754c-1.4,1.7-1.9-.1-2.1-1.5-.6-4.5.2-9.6,1.1-14l2.1,7.8-1.1,7.7Z"/>
    <path d="M549.4,477.7c-.7,5.3-6.9,5.6-10.4,8.3-2-3.9,9.4-9.2,10.4-8.3Z"/>
    <path d="M654.3,712.4c-2.8.6-1.8-.7-2.6-2-2-3.4-3.6-7.7-4.7-11.4,4.5,2.6,6.8,8.5,7.3,13.5Z"/>
    <path d="M660.5,797.6c0-3.1-.3-10.1,3.1-7.3l2.1-4.2c.9,1.7-2.8,14.2-5.2,11.4Z"/>
    <path d="M643.9,686.5c-1.8,1.9-7.9-9.2-6.2-11.4,2,.6,6.7,10.9,6.2,11.4Z"/>
    <path d="M580.5,614.8l1,10.4c-3.3-2-6.9-10.1-1-10.4Z"/>
    <path d="M606.5,867.2c-2.4,2.7-4.2,6-8.3,6.2,2.4-2.6,4.1-6,8.3-6.2Z"/>
    <path d="M654.8,713.5c.7.3.7.7,0,1v-1Z"/>
    <path d="M170.3,723.9c-.1.9-1.5,2.9-1.8,4.9-1.3,9.4-2.4,18.9-3.4,28.3l-3.9-13.2c-1.6-10.7,2.4-24.9,10.1-32.5-.6,3.9-.5,8.7-1,12.5Z"/>
    <path d="M193.2,809c-12.6-2.6-8.8-18.2-5.2-27l2.3,20,2.8,7Z"/>
    <path d="M448.6,466.3c5.7-.9,15.8,2.2,17.7,8.3-7.4-2.9-13-2.9-20.8-3.1s-3.5.5-4.1-.5c2.3-1.5,4.5-4.2,7.3-4.7Z"/>
    <path d="M244.1,585.7c1.2,0,4.4-.8,4.1,1-6.1,2-11.5,6.2-17.6,8.3s-6.4,1.7-9.3,2.1c5-5.6,15.3-11.4,22.8-11.4Z"/>
    <path d="M416.5,509.9c5.4.3,9.7,6.3,12.5,10.4-5.9-1.2-13.5-3.2-18.7-6.2s-2.6-1.4-2.1-2.1c2.5,0,6-2.2,8.3-2.1Z"/>
    <path d="M279.4,900.4c7.5,1.3,16.2,1.2,23.9,3.1,1.8,1.5-.2,1.8-1.6,2s-5.4,1.1-5.7,1.1c-4.8-.1-12.3-3.9-16.6-6.2Z"/>
    <path d="M178.6,751.9c1,6-.5,11.7-1.1,18.2s1.2,4.2-2.1,3.6c-.8-7.9-2.6-15,3.1-21.8Z"/>
    <path d="M210.8,835c1.4,4.1,2.2,8.5,4.1,12.5-7.4-2-7.7-12.4-8.3-18.7v-2.1c1.3-1.2,3.8,7.2,4.2,8.3Z"/>
    <path d="M261.7,888c.7,2.1.8,5,1.6,7.2-6.6-3.1-7.3-8.9-6.8-15.6,2.1,2.7,3.9,4.7,5.2,8.3Z"/>
    <path d="M394.6,523.4c2.4.6,5.3,6,6.2,8.3l-12.5-6.2c.2-.2-.3-1.6,0-2s5.3-.3,6.2-.1Z"/>
    <path d="M246.1,868.2c.7,2,1.7,5.3.5,7.3-2-2.7-5-8.4-5.7-11.4s-.7-5.5,1-5.2c.6,3.6,3,5.9,4.2,9.3Z"/>
    <path d="M439.3,488.1c2.2-.2,5.4.8,6.2,3.1h-10.4s-1.4-.7,0-1.5,4-1.6,4.2-1.6Z"/>
    <path d="M266.9,594c-2.7.2-5.4-.2-8-.9s-2.9.8-2.4-2.2c3.6,0,8.4-.8,10.4,3.1Z"/>
    <path d="M207.7,822.5c-2-.2-5.9-7.5-5.2-8.3,4,.2,5.5,5,5.2,8.3Z"/>
    <path d="M270,890c1.6-1.4,8.3,4.2,9.3,5.7-1.7,1-11.4-3.9-9.3-5.7Z"/>
    <path d="M233.3,848.8c.7.7,2.3,3.1.9,3.8-9.4-3-7.3-10.6-.9-3.8Z"/>
    <path d="M380.1,568.1c-1.3,1.2-4.3-4.1-5.7-4.1l-2.6-4.2c1.6-1.6,8.7,7.9,8.3,8.3Z"/>
    <path d="M337.5,568.1l-8.3-4.1c3.8-.6,6.6.7,8.3,4.1Z"/>
    <path d="M218.1,836c-2.8-2-4.7-5.2-6.2-8.3,1.9-1.8,6.6,6.4,6.2,8.3Z"/>
    <path d="M454.9,211.9c1.1-1.2,6.5,4.8,7.2,5.7,3.5,4.1,7.1,9.9,8.9,15-2.2-1.3-3.9-1.5-5.7-3.6s-6.6-9.9-8.7-13.1-1.9-2.4-1.6-4.1Z"/>
    <path d="M543.2,283.5c-2.5,7.5-18.9,4.8-21.8-1.6,7.1,2.1,14.5,2.2,21.8,1.6Z"/>
    <path d="M467.3,307.4c-1.7,1.8-10.5-10.2-10.4-12.5,1.5-1.6,11.4,9.6,10.4,12.5Z"/>
    <path d="M528.6,257.5c-5.5-.8-12-2.7-15.6-7.2,5.2.2,11.7,3.6,15.6,7.2Z"/>
    <path d="M506.8,269c-2,1.9-11.3-11.5-10.4-12.4,1.8-1.8,9.8,10.8,10.4,12.4Z"/>
    <path d="M431,209.8c1.6-1.4,11,8.2,12.4,9.9-5.7-.4-10.1-4.9-12.4-9.9Z"/>
    <path d="M517.2,274.2c-.1,2.1-5,.9-6.3.6s-9.4-2.9-7.2-4.7,11.4,3.5,13.5,4.2Z"/>
    <path d="M826.7,748.8c-1.1-7.4,1.2-15.3,1.1-22.3s-3.5-18.1-1.6-18.2c4.6,10,5.7,21.7,4.5,32.6-.3,2.4-.6,8.3-4,7.9Z"/>
    <path d="M765.4,621l-21.5-14.3-16.9-8.5c13.8,3.6,30.9,9.8,38.4,22.8Z"/>
    <path d="M819.4,808c.2,2.5-6.2,15.5-9.3,12.4s7.7-14.1,9.3-12.4Z"/>
    <path d="M837,679.2c1.6,1.5.9,10.9,1,13.5-2.3-1-3.9-5.6-4.1-7.9s.8-7.7,3.1-5.6Z"/>
    <path d="M828.7,774.8c-.3,4.5,1.1,9.5-1.5,13.5-2.3-2.6-3.4-13.4,1.5-13.5Z"/>
    <path d="M747.7,621.1c.2,2-2.1.8-3.2.6-4.1-.9-8.7-2.1-12.4-4.2,4.8-3.4,11.1,2,15.6,3.6Z"/>
    <path d="M822.5,686.5c-.2.1-1.8.1-2.1,0l-4.1-12.5c3.9,2.8,6.9,7.6,6.2,12.5Z"/>
    <path d="M824.6,702.1c-3.6-2.9-5.3-9.1-6.2-13.5,4,2.9,5.6,8.8,6.2,13.5Z"/>
    <path d="M797.6,640.8c.7,1.3,7.9,9.2,2.1,9.4l-1-2.1c0,0-.8.2-1-.5s-.7-5.6,0-6.7Z"/>
    <path d="M847.4,701c-.2.2-2.3-.1-3.1,0l1.6-7.3c1.3.9,2,6.8,1.5,7.3Z"/>
    <path d="M757.1,622.1c-1.9-.4-8,.3-7.3-3.1l7.3,3.1Z"/>
    <path d="M819.4,654.3c1.9,2.3,1.7,4.3,2.1,6.2-.7-3.9-7.4-5.1-5.7-9.3.7,1.3,3,2.3,3.6,3.1Z"/>
    <path d="M317.8,500.6c-.9,4.8-6.5,7-10.4,8.8-6.7,3-12.2,4.5-19.7,3.7-2.4-2.1,11.3-7.3,12.5-7.8,5.6-2.3,11.4-4.8,17.6-4.7Z"/>
    <path d="M213.9,512c-.7.7-2.3.5-2.1-1.5.5-3.8,4-7.4,6.8-9.9,0,1.8-4,10.7-4.7,11.4Z"/>
    <path d="M127.8,554.6c1,.3,8.8,5.3,4.6,6.2s-5.3-3.3-4.6-6.2Z"/>
    <path d="M102.8,597.2l7.3-7.3c.8,4.4-2.8,8-7.3,7.3Z"/>
    <path d="M328.2,504.7c-1.4,3.1-5.4,3.3-8.3,3.1-.5-4,6-3,8.3-3.1Z"/>
    <path d="M342.7,316.7l-9.3-14.5c5.7,2.2,10.6,8.1,9.3,14.5Z"/>
    <path d="M425.8,307.4c-5.1,0-10.8-3.3-14.5-6.8,5.3.9,11.4,1.7,14.5,6.8Z"/>
    <path d="M437.2,344.8c-1.5,1.5-7.4-6-6.2-7.3s7.1,6.3,6.2,7.3Z"/>
    <path d="M384.1,303.5c1.1.7,2.7,5.4,2.3,7-2.3-.3-8.1-10.9-2.3-7Z"/>
    <path d="M432,344.8l26.5,13.5c3.8,4.1,6.7,8.9,8.8,14-5.2-2.8-8.4-8.3-13.1-11.8-7.2-5.2-18.5-6.4-22.1-15.8Z"/>
    <path d="M167.2,684.4c-.4-11.1,7-18.2,15.6-23.9.3,2.1-.2,3.7-1.2,5.6s-9.3,13.3-11.3,15.7-1.9,2.2-3.1,2.6Z"/>
    <path d="M195.2,636.6c1.3,1.3-13,17.6-15.6,18.7.4-9.6,6.4-16.3,15.6-18.7Z"/>
    <path d="M203.6,620c-2.2-2.4,7.6-12.1,10.4-12.5.6.7-6.3,13.6-10.4,12.5Z"/>
    <path d="M166.2,697.9c-3-1.8.8-7.6,3.1-8.3l-3.1,8.3Z"/>
    <path d="M227.4,858.9c-5.2.5-5.6-4.9-8.3-7.8l8.3,7.8Z"/>
    <path d="M728,505.8c0,1.8-4.5,1.1-5.7,1.1-10.4-.7-20.9-3.5-26.4-13,10.1,5.7,20.3,11,32.2,12Z"/>
    <path d="M850.6,546.3c-2.4,2.6-13.8-17-13.5-19.7,3,1.1,14.7,18.4,13.5,19.7Z"/>
    <path d="M694.8,496.4c-2.8,1.3-8.9-5.5-7.3-7.3,2.6-1.1,8.7,5.9,7.3,7.3Z"/>
    <path d="M797.6,514.1c.7.4-.6,1.8-2.1,1s.6-1.8,2.1-1Z"/>
    <path d="M573.3,368.7c-1.1-1.1,8.1-12.1,9.8-13.5,2.5-2.1,5.4-4.5,8.8-4.7-2.1,4.5-5.2,7.6-8.8,10.9s-9.2,8-9.9,7.2Z"/>
    <path d="M611.7,338.6c2.2-7.3,4.4-15.7,10.4-20.8-2.1,7-4.2,16.4-10.4,20.8Z"/>
    <path d="M630.4,341.7c0,0-2.2.4-2.1-.5,1.6-2.8,3.2-.7,2.1.5Z"/>
    <path d="M607.5,358.3c0,0-2.2.4-2.1-.5l2.6-2.6c.2.6-.4,3-.5,3.1Z"/>
    <path d="M553.8,332.7c-.6.4-.8,3.3-2.3,2.3,2.2-4,4-8.2,9.3-8.3-1.5,4.1-4.4,4.1-7,6Z"/>
    <path d="M575.3,889c.5,2.7-.5,1.8-2.1,2.5-2.6,1.2-5.4,1.9-8.3,1.6,1.8-3.3,7-3.6,10.4-4.1Z"/>
    <path d="M278.3,197.3l1,13.5c-4.4.3-3.5-9.1-3.1-12s-.4-1.7,2.1-1.5Z"/>
    <path d="M90.9,547.4c3.8.3,2.2,10.1,1.3,12.7s-4.8,9.5-5.5,10.1c-2.3,2-6.2,1.7-6.8-1.6s6.3-21.5,11-21.2Z"/>
    <path d="M137.1,500.6l-5.2,6.8-13.5,9.8c-4.2-9.9,10.3-17.1,18.7-16.6Z"/>
    <path d="M138.1,513c1.4,1.3-5.6,8.1-8.3,6.2.5-1.8,7-7.4,8.3-6.2Z"/>
    <path d="M391.5,440.4c-4.3,4.3-14.5,5.9-19.7,2.6,6.3-2,13.2-2.7,19.7-2.6Z"/>
    <path d="M76.8,613.8c2.5,6.2,7,20.6,3,26.4-7.9,11.4-13-25.6-3-26.4Z"/>
    <path d="M785.1,796.6c-2.6-2.5,4.5-18.5,2.1-22.8,4,1,7.6.6,11.4-1,1.2,1.6-6.6,22-9.3,23.4s-3.8.9-4.2.5Z"/>
    <path d="M382,896.4c.7,1.3.1,3.5-.8,4.6-3.6,4.6-18-1.5-22.9-2.7-.4-10.2,21.3-6,23.7-1.9Z"/>
    <path d="M796.6,735.3c-6.6,1-6.3-5.2-8.4-9.7s-8.6-12.4.1-14.8c8.3-2.2,8.7,19.6,8.3,24.5Z"/>
    <path d="M590.9,832.9c.5,8.7-8.4,17.2-16.6,17.6.8-8.3,7.6-17.8,16.6-17.6Z"/>
    <path d="M469.4,901.4c.7-6.9,21.4-18,23.8-9.7s-19,11.4-23.8,9.7Z"/>
    <path d="M437,905.4c-2.7,2.6-22.8,5-21.4-2.2,1.8-9.6,31-7.1,21.4,2.2Z"/>
    <path d="M929.5,496.9c-.9,3.1-7.6,1-8.8-1.6s-.8-12.8,1.6-15,7.3-2.6,7.3,1,.7,13.3,0,15.6Z"/>
    <path d="M264.5,832c4.4-1.3,19.1,12.5,13.9,16.1-7.1,4.8-21.8-13.8-13.9-16.1Z"/>
    <path d="M768.5,832.9c-.3,8.5-7.7,16.5-15.6,19.3-8.2-6.2,14.1-20.9,15.6-19.3Z"/>
    <path d="M307.1,870.5c4.6-1.4,15,2.2,16.5,7,4.7,15.3-30.4-2.8-16.5-7Z"/>
    <path d="M745.2,668.9c6.2-1.5,20.1,14.8,15,18.2s-23.7-16-15-18.2Z"/>
    <path d="M538.7,866.4c8.2-1.1,4.4,4.9.8,9.2s-4.2,3.7-6.6,4.9c-18.4,9.1-4.7-12.6,5.8-14Z"/>
    <path d="M190,474.6l-2.1,1.5,2.1,2.1c-16.9,11.6-18.6-3.4,0-3.6Z"/>
    <path d="M246.1,800.7c-.4.4-4.1,0-5.2-.5-4.4-2-7-16.4-3.6-17.1,5.5-1.1,10.7,15.8,8.8,17.7Z"/>
    <path d="M620,782c-.2,3.5-2.7,19.1-7.7,17.6s1.3-18.8,7.7-17.6Z"/>
    <path d="M80.8,676.3c2.4,1.4,7.2,17.5,5.4,19.5-1.5-.3-4.3-.6-5.3-1.7-2.5-2.9-8.5-22.4-.1-17.8Z"/>
    <path d="M226.6,747.5c-2.9-3.2-5.5-21.5-.7-22.6s6.6,5.1,6.7,6.8-1.7,14-2.3,15.3-2.3,2-3.7.5Z"/>
    <path d="M238.8,666.8c3.8,3.1,5.3,26.3-6.2,22.8.8-5.6.9-11.3,2.4-16.8s1.6-7.8,3.8-6Z"/>
    <path d="M308.4,607.6c.8,3.8-11.2,9.3-12.5,8.3,2.2-5,6.5-9.2,12.5-8.3Z"/>
    <path d="M925.3,425.8c2.5,1.9,6.7,24,2.6,23.9s-5.3-10.1-5.6-12-.8-14.7,3-11.8Z"/>
    <path d="M619,723.9c7.1-.5,7.6,18.7,3.6,18.7-5.2-4.6-5.7-12.3-3.6-18.7Z"/>
    <path d="M347.9,594c.5,2.9-.6,1.7-2.3,2.3-12.7,4.6-7.4-4.5,2.3-2.3Z"/>
    <path d="M242.8,473.8c9.8-1.7,13.5,5.6,4.9,6.9s-13.7-5.5-4.9-6.9Z"/>
    <path d="M379.1,598.2c3.1,2.4-7.4,3.3-8.3.5l8.3-.5Z"/>
    <path d="M102.8,717.6c4.5,2.7,6.8,8.4,7.3,13.5-3.8,1-8.8-1.9-10.4-5.2s-1.7-7,.8-8.3,2,.2,2.3,0Z"/>
    <path d="M776.8,610.7c-2.2.3-13.2-6.3-11.4-8.3l11.4,8.3Z"/>
  </g>
</svg>
