<?xml version="1.0" encoding="UTF-8"?>
<svg id="icon" xmlns="http://www.w3.org/2000/svg" baseProfile="tiny" version="1.2" viewBox="0 0 1024 1024">
  <!-- Generator: Adobe Illustrator 29.7.1, SVG Export Plug-In . SVG Version: 2.1.1 Build 8)  -->
  <rect id="orange" width="1024" height="1024" fill="#f26722"/>
  <path id="white" d="M308.5,1024c-21.5-44.2-38.9-91.1-48.2-139.7-19.8-103.2-5.1-182.9,51.5-270.5,50.7-78.5,118.8-111.9,188.8-168.2,22.4-18,63.8-53.4,64.3-84.1.2-13.3-17.2-21.5-28.7-22.4-27.8-2.2-60.5,12.2-79.9,31.8s-15.8,28.5-32.9,30.8c-50.6,6.6-83.2-45.1-88-89.3-11-102.2,67.7-179.6,165.5-190.2,179.9-19.6,302.4,154.8,221.6,317.6-60.2,121.4-216.2,197.5-157.2,355.8,31.2,83.7,117,130.9,148.8,213.5,1.8,4.8,4.2,9.8,4.4,14.9h-409.7ZM547.8,478.3c-28.6,4.9-31.4,57.1,5.9,51.9s31.8-58.2-5.9-51.9ZM470.5,571.2c-26.3,3.6-39.4,39-21.5,58.5,23.4,25.6,65.8-11.2,48.9-43.7-5.4-10.3-15.7-16.4-27.4-14.8ZM420.4,694.4c-14.9,1.9-28.1,15.9-33.3,29.3-15.7,40.7,27.2,84.9,63.3,52.9,32-28.4,12.4-87.7-30-82.2ZM485,876.1c-52.4-53.9-115.2,33.9-60.7,81.1,51.1,44.2,109.4-31.1,60.7-81.1Z" fill="#fff"/>
</svg>